<mxfile host="Electron" modified="2024-07-07T18:11:34.377Z" agent="Mozilla/5.0 (Windows NT 10.0; Win64; x64) AppleWebKit/537.36 (KHTML, like Gecko) draw.io/24.6.4 Chrome/124.0.6367.207 Electron/30.0.6 Safari/537.36" etag="rxJizbJL_qXjhPYuMZfS" version="24.6.4" type="device">
  <diagram name="Page-1" id="ezVEsY8s4RXA-QwdftGH">
    <mxGraphModel dx="4232" dy="2484" grid="1" gridSize="10" guides="1" tooltips="1" connect="1" arrows="1" fold="1" page="1" pageScale="1" pageWidth="850" pageHeight="1100" math="0" shadow="0">
      <root>
        <mxCell id="0" />
        <mxCell id="1" parent="0" />
        <mxCell id="OHezRKa3BdkfaNB-0USB-177" value="&lt;&lt;abstract&gt;&gt;&#xa;User" style="swimlane;fontStyle=1;align=center;verticalAlign=top;childLayout=stackLayout;horizontal=1;startSize=38.184001464843746;horizontalStack=0;resizeParent=1;resizeParentMax=0;resizeLast=0;collapsible=0;marginBottom=0;" vertex="1" parent="1">
          <mxGeometry x="494" y="20" width="192" height="321.18400146484373" as="geometry" />
        </mxCell>
        <mxCell id="OHezRKa3BdkfaNB-0USB-178" value="-id: int" style="text;strokeColor=none;fillColor=none;align=left;verticalAlign=top;spacingLeft=4;spacingRight=4;overflow=hidden;rotatable=0;points=[[0,0.5],[1,0.5]];portConstraint=eastwest;" vertex="1" parent="OHezRKa3BdkfaNB-0USB-177">
          <mxGeometry y="38.184001464843746" width="192" height="25" as="geometry" />
        </mxCell>
        <mxCell id="OHezRKa3BdkfaNB-0USB-179" value="-firstName: string" style="text;strokeColor=none;fillColor=none;align=left;verticalAlign=top;spacingLeft=4;spacingRight=4;overflow=hidden;rotatable=0;points=[[0,0.5],[1,0.5]];portConstraint=eastwest;" vertex="1" parent="OHezRKa3BdkfaNB-0USB-177">
          <mxGeometry y="63.184001464843746" width="192" height="25" as="geometry" />
        </mxCell>
        <mxCell id="OHezRKa3BdkfaNB-0USB-180" value="-lastName: string" style="text;strokeColor=none;fillColor=none;align=left;verticalAlign=top;spacingLeft=4;spacingRight=4;overflow=hidden;rotatable=0;points=[[0,0.5],[1,0.5]];portConstraint=eastwest;" vertex="1" parent="OHezRKa3BdkfaNB-0USB-177">
          <mxGeometry y="88.18400146484375" width="192" height="25" as="geometry" />
        </mxCell>
        <mxCell id="OHezRKa3BdkfaNB-0USB-181" value="-email: string" style="text;strokeColor=none;fillColor=none;align=left;verticalAlign=top;spacingLeft=4;spacingRight=4;overflow=hidden;rotatable=0;points=[[0,0.5],[1,0.5]];portConstraint=eastwest;" vertex="1" parent="OHezRKa3BdkfaNB-0USB-177">
          <mxGeometry y="113.18400146484375" width="192" height="25" as="geometry" />
        </mxCell>
        <mxCell id="OHezRKa3BdkfaNB-0USB-182" value="-phone: string" style="text;strokeColor=none;fillColor=none;align=left;verticalAlign=top;spacingLeft=4;spacingRight=4;overflow=hidden;rotatable=0;points=[[0,0.5],[1,0.5]];portConstraint=eastwest;" vertex="1" parent="OHezRKa3BdkfaNB-0USB-177">
          <mxGeometry y="138.18400146484373" width="192" height="25" as="geometry" />
        </mxCell>
        <mxCell id="OHezRKa3BdkfaNB-0USB-183" value="-username: string" style="text;strokeColor=none;fillColor=none;align=left;verticalAlign=top;spacingLeft=4;spacingRight=4;overflow=hidden;rotatable=0;points=[[0,0.5],[1,0.5]];portConstraint=eastwest;" vertex="1" parent="OHezRKa3BdkfaNB-0USB-177">
          <mxGeometry y="163.18400146484373" width="192" height="25" as="geometry" />
        </mxCell>
        <mxCell id="OHezRKa3BdkfaNB-0USB-184" value="-password: string" style="text;strokeColor=none;fillColor=none;align=left;verticalAlign=top;spacingLeft=4;spacingRight=4;overflow=hidden;rotatable=0;points=[[0,0.5],[1,0.5]];portConstraint=eastwest;" vertex="1" parent="OHezRKa3BdkfaNB-0USB-177">
          <mxGeometry y="188.18400146484373" width="192" height="25" as="geometry" />
        </mxCell>
        <mxCell id="OHezRKa3BdkfaNB-0USB-185" value="-role: string" style="text;strokeColor=none;fillColor=none;align=left;verticalAlign=top;spacingLeft=4;spacingRight=4;overflow=hidden;rotatable=0;points=[[0,0.5],[1,0.5]];portConstraint=eastwest;" vertex="1" parent="OHezRKa3BdkfaNB-0USB-177">
          <mxGeometry y="213.18400146484373" width="192" height="25" as="geometry" />
        </mxCell>
        <mxCell id="OHezRKa3BdkfaNB-0USB-186" style="line;strokeWidth=1;fillColor=none;align=left;verticalAlign=middle;spacingTop=-1;spacingLeft=3;spacingRight=3;rotatable=0;labelPosition=right;points=[];portConstraint=eastwest;strokeColor=inherit;" vertex="1" parent="OHezRKa3BdkfaNB-0USB-177">
          <mxGeometry y="238.18400146484373" width="192" height="8" as="geometry" />
        </mxCell>
        <mxCell id="OHezRKa3BdkfaNB-0USB-187" value="+getId() : : int" style="text;strokeColor=none;fillColor=none;align=left;verticalAlign=top;spacingLeft=4;spacingRight=4;overflow=hidden;rotatable=0;points=[[0,0.5],[1,0.5]];portConstraint=eastwest;" vertex="1" parent="OHezRKa3BdkfaNB-0USB-177">
          <mxGeometry y="246.18400146484373" width="192" height="25" as="geometry" />
        </mxCell>
        <mxCell id="OHezRKa3BdkfaNB-0USB-188" value="+getFullName() : : string" style="text;strokeColor=none;fillColor=none;align=left;verticalAlign=top;spacingLeft=4;spacingRight=4;overflow=hidden;rotatable=0;points=[[0,0.5],[1,0.5]];portConstraint=eastwest;" vertex="1" parent="OHezRKa3BdkfaNB-0USB-177">
          <mxGeometry y="271.18400146484373" width="192" height="25" as="geometry" />
        </mxCell>
        <mxCell id="OHezRKa3BdkfaNB-0USB-189" value="+getEmail() : : string" style="text;strokeColor=none;fillColor=none;align=left;verticalAlign=top;spacingLeft=4;spacingRight=4;overflow=hidden;rotatable=0;points=[[0,0.5],[1,0.5]];portConstraint=eastwest;" vertex="1" parent="OHezRKa3BdkfaNB-0USB-177">
          <mxGeometry y="296.18400146484373" width="192" height="25" as="geometry" />
        </mxCell>
        <mxCell id="OHezRKa3BdkfaNB-0USB-190" value="Candidate" style="swimlane;fontStyle=1;align=center;verticalAlign=top;childLayout=stackLayout;horizontal=1;startSize=27.8;horizontalStack=0;resizeParent=1;resizeParentMax=0;resizeLast=0;collapsible=0;marginBottom=0;" vertex="1" parent="1">
          <mxGeometry x="126.25" y="361.18400146484373" width="216" height="147.8" as="geometry" />
        </mxCell>
        <mxCell id="OHezRKa3BdkfaNB-0USB-191" value="-address: string" style="text;strokeColor=none;fillColor=none;align=left;verticalAlign=top;spacingLeft=4;spacingRight=4;overflow=hidden;rotatable=0;points=[[0,0.5],[1,0.5]];portConstraint=eastwest;" vertex="1" parent="OHezRKa3BdkfaNB-0USB-190">
          <mxGeometry y="27.8" width="216" height="28" as="geometry" />
        </mxCell>
        <mxCell id="OHezRKa3BdkfaNB-0USB-192" value="-hireDate: DateTime" style="text;strokeColor=none;fillColor=none;align=left;verticalAlign=top;spacingLeft=4;spacingRight=4;overflow=hidden;rotatable=0;points=[[0,0.5],[1,0.5]];portConstraint=eastwest;" vertex="1" parent="OHezRKa3BdkfaNB-0USB-190">
          <mxGeometry y="55.8" width="216" height="28" as="geometry" />
        </mxCell>
        <mxCell id="OHezRKa3BdkfaNB-0USB-193" style="line;strokeWidth=1;fillColor=none;align=left;verticalAlign=middle;spacingTop=-1;spacingLeft=3;spacingRight=3;rotatable=0;labelPosition=right;points=[];portConstraint=eastwest;strokeColor=inherit;" vertex="1" parent="OHezRKa3BdkfaNB-0USB-190">
          <mxGeometry y="83.8" width="216" height="8" as="geometry" />
        </mxCell>
        <mxCell id="OHezRKa3BdkfaNB-0USB-194" value="+getAddress() : : string" style="text;strokeColor=none;fillColor=none;align=left;verticalAlign=top;spacingLeft=4;spacingRight=4;overflow=hidden;rotatable=0;points=[[0,0.5],[1,0.5]];portConstraint=eastwest;" vertex="1" parent="OHezRKa3BdkfaNB-0USB-190">
          <mxGeometry y="91.8" width="216" height="28" as="geometry" />
        </mxCell>
        <mxCell id="OHezRKa3BdkfaNB-0USB-195" value="+getHireDate() : : DateTime" style="text;strokeColor=none;fillColor=none;align=left;verticalAlign=top;spacingLeft=4;spacingRight=4;overflow=hidden;rotatable=0;points=[[0,0.5],[1,0.5]];portConstraint=eastwest;" vertex="1" parent="OHezRKa3BdkfaNB-0USB-190">
          <mxGeometry y="119.8" width="216" height="28" as="geometry" />
        </mxCell>
        <mxCell id="OHezRKa3BdkfaNB-0USB-196" value="Evaluator" style="swimlane;fontStyle=1;align=center;verticalAlign=top;childLayout=stackLayout;horizontal=1;startSize=31.399998982747395;horizontalStack=0;resizeParent=1;resizeParentMax=0;resizeLast=0;collapsible=0;marginBottom=0;" vertex="1" parent="1">
          <mxGeometry x="362.25" y="361.18400146484373" width="225" height="101.39999898274739" as="geometry" />
        </mxCell>
        <mxCell id="OHezRKa3BdkfaNB-0USB-197" value="-specialization: string" style="text;strokeColor=none;fillColor=none;align=left;verticalAlign=top;spacingLeft=4;spacingRight=4;overflow=hidden;rotatable=0;points=[[0,0.5],[1,0.5]];portConstraint=eastwest;" vertex="1" parent="OHezRKa3BdkfaNB-0USB-196">
          <mxGeometry y="31.399998982747395" width="225" height="31" as="geometry" />
        </mxCell>
        <mxCell id="OHezRKa3BdkfaNB-0USB-198" style="line;strokeWidth=1;fillColor=none;align=left;verticalAlign=middle;spacingTop=-1;spacingLeft=3;spacingRight=3;rotatable=0;labelPosition=right;points=[];portConstraint=eastwest;strokeColor=inherit;" vertex="1" parent="OHezRKa3BdkfaNB-0USB-196">
          <mxGeometry y="62.39999898274739" width="225" height="8" as="geometry" />
        </mxCell>
        <mxCell id="OHezRKa3BdkfaNB-0USB-199" value="+getSpecialization() : : string" style="text;strokeColor=none;fillColor=none;align=left;verticalAlign=top;spacingLeft=4;spacingRight=4;overflow=hidden;rotatable=0;points=[[0,0.5],[1,0.5]];portConstraint=eastwest;" vertex="1" parent="OHezRKa3BdkfaNB-0USB-196">
          <mxGeometry y="70.39999898274739" width="225" height="31" as="geometry" />
        </mxCell>
        <mxCell id="OHezRKa3BdkfaNB-0USB-200" value="HRManager" style="swimlane;fontStyle=1;align=center;verticalAlign=top;childLayout=stackLayout;horizontal=1;startSize=27.8;horizontalStack=0;resizeParent=1;resizeParentMax=0;resizeLast=0;collapsible=0;marginBottom=0;" vertex="1" parent="1">
          <mxGeometry x="607.25" y="361.18400146484373" width="210" height="147.8" as="geometry" />
        </mxCell>
        <mxCell id="OHezRKa3BdkfaNB-0USB-201" value="-department: string" style="text;strokeColor=none;fillColor=none;align=left;verticalAlign=top;spacingLeft=4;spacingRight=4;overflow=hidden;rotatable=0;points=[[0,0.5],[1,0.5]];portConstraint=eastwest;" vertex="1" parent="OHezRKa3BdkfaNB-0USB-200">
          <mxGeometry y="27.8" width="210" height="28" as="geometry" />
        </mxCell>
        <mxCell id="OHezRKa3BdkfaNB-0USB-202" value="-position: string" style="text;strokeColor=none;fillColor=none;align=left;verticalAlign=top;spacingLeft=4;spacingRight=4;overflow=hidden;rotatable=0;points=[[0,0.5],[1,0.5]];portConstraint=eastwest;" vertex="1" parent="OHezRKa3BdkfaNB-0USB-200">
          <mxGeometry y="55.8" width="210" height="28" as="geometry" />
        </mxCell>
        <mxCell id="OHezRKa3BdkfaNB-0USB-203" style="line;strokeWidth=1;fillColor=none;align=left;verticalAlign=middle;spacingTop=-1;spacingLeft=3;spacingRight=3;rotatable=0;labelPosition=right;points=[];portConstraint=eastwest;strokeColor=inherit;" vertex="1" parent="OHezRKa3BdkfaNB-0USB-200">
          <mxGeometry y="83.8" width="210" height="8" as="geometry" />
        </mxCell>
        <mxCell id="OHezRKa3BdkfaNB-0USB-204" value="+getDepartment() : : string" style="text;strokeColor=none;fillColor=none;align=left;verticalAlign=top;spacingLeft=4;spacingRight=4;overflow=hidden;rotatable=0;points=[[0,0.5],[1,0.5]];portConstraint=eastwest;" vertex="1" parent="OHezRKa3BdkfaNB-0USB-200">
          <mxGeometry y="91.8" width="210" height="28" as="geometry" />
        </mxCell>
        <mxCell id="OHezRKa3BdkfaNB-0USB-205" value="+getPosition() : : string" style="text;strokeColor=none;fillColor=none;align=left;verticalAlign=top;spacingLeft=4;spacingRight=4;overflow=hidden;rotatable=0;points=[[0,0.5],[1,0.5]];portConstraint=eastwest;" vertex="1" parent="OHezRKa3BdkfaNB-0USB-200">
          <mxGeometry y="119.8" width="210" height="28" as="geometry" />
        </mxCell>
        <mxCell id="OHezRKa3BdkfaNB-0USB-206" value="Interview" style="swimlane;fontStyle=1;align=center;verticalAlign=top;childLayout=stackLayout;horizontal=1;startSize=26.25714329310826;horizontalStack=0;resizeParent=1;resizeParentMax=0;resizeLast=0;collapsible=0;marginBottom=0;" vertex="1" parent="1">
          <mxGeometry x="1423" y="20" width="374" height="190.25714329310824" as="geometry" />
        </mxCell>
        <mxCell id="OHezRKa3BdkfaNB-0USB-207" value="-id: int" style="text;strokeColor=none;fillColor=none;align=left;verticalAlign=top;spacingLeft=4;spacingRight=4;overflow=hidden;rotatable=0;points=[[0,0.5],[1,0.5]];portConstraint=eastwest;" vertex="1" parent="OHezRKa3BdkfaNB-0USB-206">
          <mxGeometry y="26.25714329310826" width="374" height="26" as="geometry" />
        </mxCell>
        <mxCell id="OHezRKa3BdkfaNB-0USB-208" value="-interviewDate: DateTime" style="text;strokeColor=none;fillColor=none;align=left;verticalAlign=top;spacingLeft=4;spacingRight=4;overflow=hidden;rotatable=0;points=[[0,0.5],[1,0.5]];portConstraint=eastwest;" vertex="1" parent="OHezRKa3BdkfaNB-0USB-206">
          <mxGeometry y="52.25714329310826" width="374" height="26" as="geometry" />
        </mxCell>
        <mxCell id="OHezRKa3BdkfaNB-0USB-209" value="-interviewLocation: string" style="text;strokeColor=none;fillColor=none;align=left;verticalAlign=top;spacingLeft=4;spacingRight=4;overflow=hidden;rotatable=0;points=[[0,0.5],[1,0.5]];portConstraint=eastwest;" vertex="1" parent="OHezRKa3BdkfaNB-0USB-206">
          <mxGeometry y="78.25714329310826" width="374" height="26" as="geometry" />
        </mxCell>
        <mxCell id="OHezRKa3BdkfaNB-0USB-210" value="-status: InterviewStatus" style="text;strokeColor=none;fillColor=none;align=left;verticalAlign=top;spacingLeft=4;spacingRight=4;overflow=hidden;rotatable=0;points=[[0,0.5],[1,0.5]];portConstraint=eastwest;" vertex="1" parent="OHezRKa3BdkfaNB-0USB-206">
          <mxGeometry y="104.25714329310826" width="374" height="26" as="geometry" />
        </mxCell>
        <mxCell id="OHezRKa3BdkfaNB-0USB-211" style="line;strokeWidth=1;fillColor=none;align=left;verticalAlign=middle;spacingTop=-1;spacingLeft=3;spacingRight=3;rotatable=0;labelPosition=right;points=[];portConstraint=eastwest;strokeColor=inherit;" vertex="1" parent="OHezRKa3BdkfaNB-0USB-206">
          <mxGeometry y="130.25714329310824" width="374" height="8" as="geometry" />
        </mxCell>
        <mxCell id="OHezRKa3BdkfaNB-0USB-212" value="+schedule(DateTime date, string location) : : void" style="text;strokeColor=none;fillColor=none;align=left;verticalAlign=top;spacingLeft=4;spacingRight=4;overflow=hidden;rotatable=0;points=[[0,0.5],[1,0.5]];portConstraint=eastwest;" vertex="1" parent="OHezRKa3BdkfaNB-0USB-206">
          <mxGeometry y="138.25714329310824" width="374" height="26" as="geometry" />
        </mxCell>
        <mxCell id="OHezRKa3BdkfaNB-0USB-213" value="+updateStatus(InterviewStatus status) : : void" style="text;strokeColor=none;fillColor=none;align=left;verticalAlign=top;spacingLeft=4;spacingRight=4;overflow=hidden;rotatable=0;points=[[0,0.5],[1,0.5]];portConstraint=eastwest;" vertex="1" parent="OHezRKa3BdkfaNB-0USB-206">
          <mxGeometry y="164.25714329310824" width="374" height="26" as="geometry" />
        </mxCell>
        <mxCell id="OHezRKa3BdkfaNB-0USB-214" value="Appreciation" style="swimlane;fontStyle=1;align=center;verticalAlign=top;childLayout=stackLayout;horizontal=1;startSize=26.899998982747395;horizontalStack=0;resizeParent=1;resizeParentMax=0;resizeLast=0;collapsible=0;marginBottom=0;" vertex="1" parent="1">
          <mxGeometry x="1161.75" y="361.18400146484373" width="298" height="169.89999898274738" as="geometry" />
        </mxCell>
        <mxCell id="OHezRKa3BdkfaNB-0USB-215" value="-id: int" style="text;strokeColor=none;fillColor=none;align=left;verticalAlign=top;spacingLeft=4;spacingRight=4;overflow=hidden;rotatable=0;points=[[0,0.5],[1,0.5]];portConstraint=eastwest;" vertex="1" parent="OHezRKa3BdkfaNB-0USB-214">
          <mxGeometry y="26.899998982747395" width="298" height="27" as="geometry" />
        </mxCell>
        <mxCell id="OHezRKa3BdkfaNB-0USB-216" value="-comment: string" style="text;strokeColor=none;fillColor=none;align=left;verticalAlign=top;spacingLeft=4;spacingRight=4;overflow=hidden;rotatable=0;points=[[0,0.5],[1,0.5]];portConstraint=eastwest;" vertex="1" parent="OHezRKa3BdkfaNB-0USB-214">
          <mxGeometry y="53.89999898274739" width="298" height="27" as="geometry" />
        </mxCell>
        <mxCell id="OHezRKa3BdkfaNB-0USB-217" value="-score: int" style="text;strokeColor=none;fillColor=none;align=left;verticalAlign=top;spacingLeft=4;spacingRight=4;overflow=hidden;rotatable=0;points=[[0,0.5],[1,0.5]];portConstraint=eastwest;" vertex="1" parent="OHezRKa3BdkfaNB-0USB-214">
          <mxGeometry y="80.89999898274739" width="298" height="27" as="geometry" />
        </mxCell>
        <mxCell id="OHezRKa3BdkfaNB-0USB-218" style="line;strokeWidth=1;fillColor=none;align=left;verticalAlign=middle;spacingTop=-1;spacingLeft=3;spacingRight=3;rotatable=0;labelPosition=right;points=[];portConstraint=eastwest;strokeColor=inherit;" vertex="1" parent="OHezRKa3BdkfaNB-0USB-214">
          <mxGeometry y="107.89999898274739" width="298" height="8" as="geometry" />
        </mxCell>
        <mxCell id="OHezRKa3BdkfaNB-0USB-219" value="+addComment(string comment) : : void" style="text;strokeColor=none;fillColor=none;align=left;verticalAlign=top;spacingLeft=4;spacingRight=4;overflow=hidden;rotatable=0;points=[[0,0.5],[1,0.5]];portConstraint=eastwest;" vertex="1" parent="OHezRKa3BdkfaNB-0USB-214">
          <mxGeometry y="115.89999898274739" width="298" height="27" as="geometry" />
        </mxCell>
        <mxCell id="OHezRKa3BdkfaNB-0USB-220" value="+setScore(int score) : : void" style="text;strokeColor=none;fillColor=none;align=left;verticalAlign=top;spacingLeft=4;spacingRight=4;overflow=hidden;rotatable=0;points=[[0,0.5],[1,0.5]];portConstraint=eastwest;" vertex="1" parent="OHezRKa3BdkfaNB-0USB-214">
          <mxGeometry y="142.89999898274738" width="298" height="27" as="geometry" />
        </mxCell>
        <mxCell id="OHezRKa3BdkfaNB-0USB-221" value="CV" style="swimlane;fontStyle=1;align=center;verticalAlign=top;childLayout=stackLayout;horizontal=1;startSize=29.149999618530273;horizontalStack=0;resizeParent=1;resizeParentMax=0;resizeLast=0;collapsible=0;marginBottom=0;" vertex="1" parent="1">
          <mxGeometry x="20" y="528.9840014648437" width="183" height="124.14999961853027" as="geometry" />
        </mxCell>
        <mxCell id="OHezRKa3BdkfaNB-0USB-222" value="-id: int" style="text;strokeColor=none;fillColor=none;align=left;verticalAlign=top;spacingLeft=4;spacingRight=4;overflow=hidden;rotatable=0;points=[[0,0.5],[1,0.5]];portConstraint=eastwest;" vertex="1" parent="OHezRKa3BdkfaNB-0USB-221">
          <mxGeometry y="29.149999618530273" width="183" height="29" as="geometry" />
        </mxCell>
        <mxCell id="OHezRKa3BdkfaNB-0USB-223" value="-filePath: string" style="text;strokeColor=none;fillColor=none;align=left;verticalAlign=top;spacingLeft=4;spacingRight=4;overflow=hidden;rotatable=0;points=[[0,0.5],[1,0.5]];portConstraint=eastwest;" vertex="1" parent="OHezRKa3BdkfaNB-0USB-221">
          <mxGeometry y="58.14999961853027" width="183" height="29" as="geometry" />
        </mxCell>
        <mxCell id="OHezRKa3BdkfaNB-0USB-224" style="line;strokeWidth=1;fillColor=none;align=left;verticalAlign=middle;spacingTop=-1;spacingLeft=3;spacingRight=3;rotatable=0;labelPosition=right;points=[];portConstraint=eastwest;strokeColor=inherit;" vertex="1" parent="OHezRKa3BdkfaNB-0USB-221">
          <mxGeometry y="87.14999961853027" width="183" height="8" as="geometry" />
        </mxCell>
        <mxCell id="OHezRKa3BdkfaNB-0USB-225" value="+getFilePath() : : string" style="text;strokeColor=none;fillColor=none;align=left;verticalAlign=top;spacingLeft=4;spacingRight=4;overflow=hidden;rotatable=0;points=[[0,0.5],[1,0.5]];portConstraint=eastwest;" vertex="1" parent="OHezRKa3BdkfaNB-0USB-221">
          <mxGeometry y="95.14999961853027" width="183" height="29" as="geometry" />
        </mxCell>
        <mxCell id="OHezRKa3BdkfaNB-0USB-226" value="Agenda" style="swimlane;fontStyle=1;align=center;verticalAlign=top;childLayout=stackLayout;horizontal=1;startSize=25.774999618530273;horizontalStack=0;resizeParent=1;resizeParentMax=0;resizeLast=0;collapsible=0;marginBottom=0;" vertex="1" parent="1">
          <mxGeometry x="1479.75" y="361.18400146484373" width="273" height="215.77499961853027" as="geometry" />
        </mxCell>
        <mxCell id="OHezRKa3BdkfaNB-0USB-227" value="-id: int" style="text;strokeColor=none;fillColor=none;align=left;verticalAlign=top;spacingLeft=4;spacingRight=4;overflow=hidden;rotatable=0;points=[[0,0.5],[1,0.5]];portConstraint=eastwest;" vertex="1" parent="OHezRKa3BdkfaNB-0USB-226">
          <mxGeometry y="25.774999618530273" width="273" height="26" as="geometry" />
        </mxCell>
        <mxCell id="OHezRKa3BdkfaNB-0USB-228" value="-date: DateTime" style="text;strokeColor=none;fillColor=none;align=left;verticalAlign=top;spacingLeft=4;spacingRight=4;overflow=hidden;rotatable=0;points=[[0,0.5],[1,0.5]];portConstraint=eastwest;" vertex="1" parent="OHezRKa3BdkfaNB-0USB-226">
          <mxGeometry y="51.77499961853027" width="273" height="26" as="geometry" />
        </mxCell>
        <mxCell id="OHezRKa3BdkfaNB-0USB-229" value="-startTime: DateTime" style="text;strokeColor=none;fillColor=none;align=left;verticalAlign=top;spacingLeft=4;spacingRight=4;overflow=hidden;rotatable=0;points=[[0,0.5],[1,0.5]];portConstraint=eastwest;" vertex="1" parent="OHezRKa3BdkfaNB-0USB-226">
          <mxGeometry y="77.77499961853027" width="273" height="26" as="geometry" />
        </mxCell>
        <mxCell id="OHezRKa3BdkfaNB-0USB-230" value="-endTime: DateTime" style="text;strokeColor=none;fillColor=none;align=left;verticalAlign=top;spacingLeft=4;spacingRight=4;overflow=hidden;rotatable=0;points=[[0,0.5],[1,0.5]];portConstraint=eastwest;" vertex="1" parent="OHezRKa3BdkfaNB-0USB-226">
          <mxGeometry y="103.77499961853027" width="273" height="26" as="geometry" />
        </mxCell>
        <mxCell id="OHezRKa3BdkfaNB-0USB-231" value="-status: string" style="text;strokeColor=none;fillColor=none;align=left;verticalAlign=top;spacingLeft=4;spacingRight=4;overflow=hidden;rotatable=0;points=[[0,0.5],[1,0.5]];portConstraint=eastwest;" vertex="1" parent="OHezRKa3BdkfaNB-0USB-226">
          <mxGeometry y="129.77499961853027" width="273" height="26" as="geometry" />
        </mxCell>
        <mxCell id="OHezRKa3BdkfaNB-0USB-232" value="-description: string" style="text;strokeColor=none;fillColor=none;align=left;verticalAlign=top;spacingLeft=4;spacingRight=4;overflow=hidden;rotatable=0;points=[[0,0.5],[1,0.5]];portConstraint=eastwest;" vertex="1" parent="OHezRKa3BdkfaNB-0USB-226">
          <mxGeometry y="155.77499961853027" width="273" height="26" as="geometry" />
        </mxCell>
        <mxCell id="OHezRKa3BdkfaNB-0USB-233" style="line;strokeWidth=1;fillColor=none;align=left;verticalAlign=middle;spacingTop=-1;spacingLeft=3;spacingRight=3;rotatable=0;labelPosition=right;points=[];portConstraint=eastwest;strokeColor=inherit;" vertex="1" parent="OHezRKa3BdkfaNB-0USB-226">
          <mxGeometry y="181.77499961853027" width="273" height="8" as="geometry" />
        </mxCell>
        <mxCell id="OHezRKa3BdkfaNB-0USB-234" value="+updateStatus(string status) : : void" style="text;strokeColor=none;fillColor=none;align=left;verticalAlign=top;spacingLeft=4;spacingRight=4;overflow=hidden;rotatable=0;points=[[0,0.5],[1,0.5]];portConstraint=eastwest;" vertex="1" parent="OHezRKa3BdkfaNB-0USB-226">
          <mxGeometry y="189.77499961853027" width="273" height="26" as="geometry" />
        </mxCell>
        <mxCell id="OHezRKa3BdkfaNB-0USB-235" value="Notification" style="swimlane;fontStyle=1;align=center;verticalAlign=top;childLayout=stackLayout;horizontal=1;startSize=27.8;horizontalStack=0;resizeParent=1;resizeParentMax=0;resizeLast=0;collapsible=0;marginBottom=0;" vertex="1" parent="1">
          <mxGeometry x="837.25" y="361.18400146484373" width="217" height="147.8" as="geometry" />
        </mxCell>
        <mxCell id="OHezRKa3BdkfaNB-0USB-236" value="-id: int" style="text;strokeColor=none;fillColor=none;align=left;verticalAlign=top;spacingLeft=4;spacingRight=4;overflow=hidden;rotatable=0;points=[[0,0.5],[1,0.5]];portConstraint=eastwest;" vertex="1" parent="OHezRKa3BdkfaNB-0USB-235">
          <mxGeometry y="27.8" width="217" height="28" as="geometry" />
        </mxCell>
        <mxCell id="OHezRKa3BdkfaNB-0USB-237" value="-content: string" style="text;strokeColor=none;fillColor=none;align=left;verticalAlign=top;spacingLeft=4;spacingRight=4;overflow=hidden;rotatable=0;points=[[0,0.5],[1,0.5]];portConstraint=eastwest;" vertex="1" parent="OHezRKa3BdkfaNB-0USB-235">
          <mxGeometry y="55.8" width="217" height="28" as="geometry" />
        </mxCell>
        <mxCell id="OHezRKa3BdkfaNB-0USB-238" value="-notificationDate: DateTime" style="text;strokeColor=none;fillColor=none;align=left;verticalAlign=top;spacingLeft=4;spacingRight=4;overflow=hidden;rotatable=0;points=[[0,0.5],[1,0.5]];portConstraint=eastwest;" vertex="1" parent="OHezRKa3BdkfaNB-0USB-235">
          <mxGeometry y="83.8" width="217" height="28" as="geometry" />
        </mxCell>
        <mxCell id="OHezRKa3BdkfaNB-0USB-239" style="line;strokeWidth=1;fillColor=none;align=left;verticalAlign=middle;spacingTop=-1;spacingLeft=3;spacingRight=3;rotatable=0;labelPosition=right;points=[];portConstraint=eastwest;strokeColor=inherit;" vertex="1" parent="OHezRKa3BdkfaNB-0USB-235">
          <mxGeometry y="111.8" width="217" height="8" as="geometry" />
        </mxCell>
        <mxCell id="OHezRKa3BdkfaNB-0USB-240" value="+send() : : void" style="text;strokeColor=none;fillColor=none;align=left;verticalAlign=top;spacingLeft=4;spacingRight=4;overflow=hidden;rotatable=0;points=[[0,0.5],[1,0.5]];portConstraint=eastwest;" vertex="1" parent="OHezRKa3BdkfaNB-0USB-235">
          <mxGeometry y="119.8" width="217" height="28" as="geometry" />
        </mxCell>
        <mxCell id="OHezRKa3BdkfaNB-0USB-241" value="CandidatePhase" style="swimlane;fontStyle=1;align=center;verticalAlign=top;childLayout=stackLayout;horizontal=1;startSize=25.774999618530273;horizontalStack=0;resizeParent=1;resizeParentMax=0;resizeLast=0;collapsible=0;marginBottom=0;" vertex="1" parent="1">
          <mxGeometry x="223" y="528.9840014648437" width="268" height="215.77499961853027" as="geometry" />
        </mxCell>
        <mxCell id="OHezRKa3BdkfaNB-0USB-242" value="-id: int" style="text;strokeColor=none;fillColor=none;align=left;verticalAlign=top;spacingLeft=4;spacingRight=4;overflow=hidden;rotatable=0;points=[[0,0.5],[1,0.5]];portConstraint=eastwest;" vertex="1" parent="OHezRKa3BdkfaNB-0USB-241">
          <mxGeometry y="25.774999618530273" width="268" height="26" as="geometry" />
        </mxCell>
        <mxCell id="OHezRKa3BdkfaNB-0USB-243" value="-phase: string" style="text;strokeColor=none;fillColor=none;align=left;verticalAlign=top;spacingLeft=4;spacingRight=4;overflow=hidden;rotatable=0;points=[[0,0.5],[1,0.5]];portConstraint=eastwest;" vertex="1" parent="OHezRKa3BdkfaNB-0USB-241">
          <mxGeometry y="51.77499961853027" width="268" height="26" as="geometry" />
        </mxCell>
        <mxCell id="OHezRKa3BdkfaNB-0USB-244" value="-startDate: DateTime" style="text;strokeColor=none;fillColor=none;align=left;verticalAlign=top;spacingLeft=4;spacingRight=4;overflow=hidden;rotatable=0;points=[[0,0.5],[1,0.5]];portConstraint=eastwest;" vertex="1" parent="OHezRKa3BdkfaNB-0USB-241">
          <mxGeometry y="77.77499961853027" width="268" height="26" as="geometry" />
        </mxCell>
        <mxCell id="OHezRKa3BdkfaNB-0USB-245" value="-endDate: DateTime" style="text;strokeColor=none;fillColor=none;align=left;verticalAlign=top;spacingLeft=4;spacingRight=4;overflow=hidden;rotatable=0;points=[[0,0.5],[1,0.5]];portConstraint=eastwest;" vertex="1" parent="OHezRKa3BdkfaNB-0USB-241">
          <mxGeometry y="103.77499961853027" width="268" height="26" as="geometry" />
        </mxCell>
        <mxCell id="OHezRKa3BdkfaNB-0USB-246" value="-result: string" style="text;strokeColor=none;fillColor=none;align=left;verticalAlign=top;spacingLeft=4;spacingRight=4;overflow=hidden;rotatable=0;points=[[0,0.5],[1,0.5]];portConstraint=eastwest;" vertex="1" parent="OHezRKa3BdkfaNB-0USB-241">
          <mxGeometry y="129.77499961853027" width="268" height="26" as="geometry" />
        </mxCell>
        <mxCell id="OHezRKa3BdkfaNB-0USB-247" style="line;strokeWidth=1;fillColor=none;align=left;verticalAlign=middle;spacingTop=-1;spacingLeft=3;spacingRight=3;rotatable=0;labelPosition=right;points=[];portConstraint=eastwest;strokeColor=inherit;" vertex="1" parent="OHezRKa3BdkfaNB-0USB-241">
          <mxGeometry y="155.77499961853027" width="268" height="8" as="geometry" />
        </mxCell>
        <mxCell id="OHezRKa3BdkfaNB-0USB-248" value="+updatePhase(string phase) : : void" style="text;strokeColor=none;fillColor=none;align=left;verticalAlign=top;spacingLeft=4;spacingRight=4;overflow=hidden;rotatable=0;points=[[0,0.5],[1,0.5]];portConstraint=eastwest;" vertex="1" parent="OHezRKa3BdkfaNB-0USB-241">
          <mxGeometry y="163.77499961853027" width="268" height="26" as="geometry" />
        </mxCell>
        <mxCell id="OHezRKa3BdkfaNB-0USB-249" value="+setResult(string result) : : void" style="text;strokeColor=none;fillColor=none;align=left;verticalAlign=top;spacingLeft=4;spacingRight=4;overflow=hidden;rotatable=0;points=[[0,0.5],[1,0.5]];portConstraint=eastwest;" vertex="1" parent="OHezRKa3BdkfaNB-0USB-241">
          <mxGeometry y="189.77499961853027" width="268" height="26" as="geometry" />
        </mxCell>
        <mxCell id="OHezRKa3BdkfaNB-0USB-250" value="InterviewStatus" style="swimlane;fontStyle=1;align=center;verticalAlign=top;childLayout=stackLayout;horizontal=1;startSize=27.8;horizontalStack=0;resizeParent=1;resizeParentMax=0;resizeLast=0;collapsible=0;marginBottom=0;" vertex="1" parent="1">
          <mxGeometry x="1772.75" y="361.18400146484373" width="273" height="147.8" as="geometry" />
        </mxCell>
        <mxCell id="OHezRKa3BdkfaNB-0USB-251" value="-id: int" style="text;strokeColor=none;fillColor=none;align=left;verticalAlign=top;spacingLeft=4;spacingRight=4;overflow=hidden;rotatable=0;points=[[0,0.5],[1,0.5]];portConstraint=eastwest;" vertex="1" parent="OHezRKa3BdkfaNB-0USB-250">
          <mxGeometry y="27.8" width="273" height="28" as="geometry" />
        </mxCell>
        <mxCell id="OHezRKa3BdkfaNB-0USB-252" value="-status: string" style="text;strokeColor=none;fillColor=none;align=left;verticalAlign=top;spacingLeft=4;spacingRight=4;overflow=hidden;rotatable=0;points=[[0,0.5],[1,0.5]];portConstraint=eastwest;" vertex="1" parent="OHezRKa3BdkfaNB-0USB-250">
          <mxGeometry y="55.8" width="273" height="28" as="geometry" />
        </mxCell>
        <mxCell id="OHezRKa3BdkfaNB-0USB-253" value="-statusDate: DateTime" style="text;strokeColor=none;fillColor=none;align=left;verticalAlign=top;spacingLeft=4;spacingRight=4;overflow=hidden;rotatable=0;points=[[0,0.5],[1,0.5]];portConstraint=eastwest;" vertex="1" parent="OHezRKa3BdkfaNB-0USB-250">
          <mxGeometry y="83.8" width="273" height="28" as="geometry" />
        </mxCell>
        <mxCell id="OHezRKa3BdkfaNB-0USB-254" style="line;strokeWidth=1;fillColor=none;align=left;verticalAlign=middle;spacingTop=-1;spacingLeft=3;spacingRight=3;rotatable=0;labelPosition=right;points=[];portConstraint=eastwest;strokeColor=inherit;" vertex="1" parent="OHezRKa3BdkfaNB-0USB-250">
          <mxGeometry y="111.8" width="273" height="8" as="geometry" />
        </mxCell>
        <mxCell id="OHezRKa3BdkfaNB-0USB-255" value="+updateStatus(string status) : : void" style="text;strokeColor=none;fillColor=none;align=left;verticalAlign=top;spacingLeft=4;spacingRight=4;overflow=hidden;rotatable=0;points=[[0,0.5],[1,0.5]];portConstraint=eastwest;" vertex="1" parent="OHezRKa3BdkfaNB-0USB-250">
          <mxGeometry y="119.8" width="273" height="28" as="geometry" />
        </mxCell>
        <mxCell id="OHezRKa3BdkfaNB-0USB-256" value="&lt;&lt;interface&gt;&gt;&#xa;Command" style="swimlane;fontStyle=1;align=center;verticalAlign=top;childLayout=stackLayout;horizontal=1;startSize=47.099998474121094;horizontalStack=0;resizeParent=1;resizeParentMax=0;resizeLast=0;collapsible=0;marginBottom=0;" vertex="1" parent="1">
          <mxGeometry x="2702.75" y="20" width="148" height="86.0999984741211" as="geometry" />
        </mxCell>
        <mxCell id="OHezRKa3BdkfaNB-0USB-257" style="line;strokeWidth=1;fillColor=none;align=left;verticalAlign=middle;spacingTop=-1;spacingLeft=3;spacingRight=3;rotatable=0;labelPosition=right;points=[];portConstraint=eastwest;strokeColor=inherit;" vertex="1" parent="OHezRKa3BdkfaNB-0USB-256">
          <mxGeometry y="47.099998474121094" width="148" height="8" as="geometry" />
        </mxCell>
        <mxCell id="OHezRKa3BdkfaNB-0USB-258" value="+execute() : : void" style="text;strokeColor=none;fillColor=none;align=left;verticalAlign=top;spacingLeft=4;spacingRight=4;overflow=hidden;rotatable=0;points=[[0,0.5],[1,0.5]];portConstraint=eastwest;" vertex="1" parent="OHezRKa3BdkfaNB-0USB-256">
          <mxGeometry y="55.099998474121094" width="148" height="31" as="geometry" />
        </mxCell>
        <mxCell id="OHezRKa3BdkfaNB-0USB-259" value="ScheduleInterviewCommand" style="swimlane;fontStyle=1;align=center;verticalAlign=top;childLayout=stackLayout;horizontal=1;startSize=31.399998982747395;horizontalStack=0;resizeParent=1;resizeParentMax=0;resizeLast=0;collapsible=0;marginBottom=0;" vertex="1" parent="1">
          <mxGeometry x="2243.75" y="361.18400146484373" width="228" height="101.39999898274739" as="geometry" />
        </mxCell>
        <mxCell id="OHezRKa3BdkfaNB-0USB-260" value="-interviewData: array" style="text;strokeColor=none;fillColor=none;align=left;verticalAlign=top;spacingLeft=4;spacingRight=4;overflow=hidden;rotatable=0;points=[[0,0.5],[1,0.5]];portConstraint=eastwest;" vertex="1" parent="OHezRKa3BdkfaNB-0USB-259">
          <mxGeometry y="31.399998982747395" width="228" height="31" as="geometry" />
        </mxCell>
        <mxCell id="OHezRKa3BdkfaNB-0USB-261" style="line;strokeWidth=1;fillColor=none;align=left;verticalAlign=middle;spacingTop=-1;spacingLeft=3;spacingRight=3;rotatable=0;labelPosition=right;points=[];portConstraint=eastwest;strokeColor=inherit;" vertex="1" parent="OHezRKa3BdkfaNB-0USB-259">
          <mxGeometry y="62.39999898274739" width="228" height="8" as="geometry" />
        </mxCell>
        <mxCell id="OHezRKa3BdkfaNB-0USB-262" value="+execute() : : void" style="text;strokeColor=none;fillColor=none;align=left;verticalAlign=top;spacingLeft=4;spacingRight=4;overflow=hidden;rotatable=0;points=[[0,0.5],[1,0.5]];portConstraint=eastwest;" vertex="1" parent="OHezRKa3BdkfaNB-0USB-259">
          <mxGeometry y="70.39999898274739" width="228" height="31" as="geometry" />
        </mxCell>
        <mxCell id="OHezRKa3BdkfaNB-0USB-263" value="UpdateInterviewStatusCommand" style="swimlane;fontStyle=1;align=center;verticalAlign=top;childLayout=stackLayout;horizontal=1;startSize=29.149999618530273;horizontalStack=0;resizeParent=1;resizeParentMax=0;resizeLast=0;collapsible=0;marginBottom=0;" vertex="1" parent="1">
          <mxGeometry x="2491.75" y="361.18400146484373" width="260" height="124.14999961853027" as="geometry" />
        </mxCell>
        <mxCell id="OHezRKa3BdkfaNB-0USB-264" value="-interviewId: int" style="text;strokeColor=none;fillColor=none;align=left;verticalAlign=top;spacingLeft=4;spacingRight=4;overflow=hidden;rotatable=0;points=[[0,0.5],[1,0.5]];portConstraint=eastwest;" vertex="1" parent="OHezRKa3BdkfaNB-0USB-263">
          <mxGeometry y="29.149999618530273" width="260" height="29" as="geometry" />
        </mxCell>
        <mxCell id="OHezRKa3BdkfaNB-0USB-265" value="-newStatus: string" style="text;strokeColor=none;fillColor=none;align=left;verticalAlign=top;spacingLeft=4;spacingRight=4;overflow=hidden;rotatable=0;points=[[0,0.5],[1,0.5]];portConstraint=eastwest;" vertex="1" parent="OHezRKa3BdkfaNB-0USB-263">
          <mxGeometry y="58.14999961853027" width="260" height="29" as="geometry" />
        </mxCell>
        <mxCell id="OHezRKa3BdkfaNB-0USB-266" style="line;strokeWidth=1;fillColor=none;align=left;verticalAlign=middle;spacingTop=-1;spacingLeft=3;spacingRight=3;rotatable=0;labelPosition=right;points=[];portConstraint=eastwest;strokeColor=inherit;" vertex="1" parent="OHezRKa3BdkfaNB-0USB-263">
          <mxGeometry y="87.14999961853027" width="260" height="8" as="geometry" />
        </mxCell>
        <mxCell id="OHezRKa3BdkfaNB-0USB-267" value="+execute() : : void" style="text;strokeColor=none;fillColor=none;align=left;verticalAlign=top;spacingLeft=4;spacingRight=4;overflow=hidden;rotatable=0;points=[[0,0.5],[1,0.5]];portConstraint=eastwest;" vertex="1" parent="OHezRKa3BdkfaNB-0USB-263">
          <mxGeometry y="95.14999961853027" width="260" height="29" as="geometry" />
        </mxCell>
        <mxCell id="OHezRKa3BdkfaNB-0USB-268" value="AddAppreciationCommand" style="swimlane;fontStyle=1;align=center;verticalAlign=top;childLayout=stackLayout;horizontal=1;startSize=29.149999618530273;horizontalStack=0;resizeParent=1;resizeParentMax=0;resizeLast=0;collapsible=0;marginBottom=0;" vertex="1" parent="1">
          <mxGeometry x="2801.75" y="361.18400146484373" width="214" height="124.14999961853027" as="geometry" />
        </mxCell>
        <mxCell id="OHezRKa3BdkfaNB-0USB-269" value="-interviewId: int" style="text;strokeColor=none;fillColor=none;align=left;verticalAlign=top;spacingLeft=4;spacingRight=4;overflow=hidden;rotatable=0;points=[[0,0.5],[1,0.5]];portConstraint=eastwest;" vertex="1" parent="OHezRKa3BdkfaNB-0USB-268">
          <mxGeometry y="29.149999618530273" width="214" height="29" as="geometry" />
        </mxCell>
        <mxCell id="OHezRKa3BdkfaNB-0USB-270" value="-appreciationData: array" style="text;strokeColor=none;fillColor=none;align=left;verticalAlign=top;spacingLeft=4;spacingRight=4;overflow=hidden;rotatable=0;points=[[0,0.5],[1,0.5]];portConstraint=eastwest;" vertex="1" parent="OHezRKa3BdkfaNB-0USB-268">
          <mxGeometry y="58.14999961853027" width="214" height="29" as="geometry" />
        </mxCell>
        <mxCell id="OHezRKa3BdkfaNB-0USB-271" style="line;strokeWidth=1;fillColor=none;align=left;verticalAlign=middle;spacingTop=-1;spacingLeft=3;spacingRight=3;rotatable=0;labelPosition=right;points=[];portConstraint=eastwest;strokeColor=inherit;" vertex="1" parent="OHezRKa3BdkfaNB-0USB-268">
          <mxGeometry y="87.14999961853027" width="214" height="8" as="geometry" />
        </mxCell>
        <mxCell id="OHezRKa3BdkfaNB-0USB-272" value="+execute() : : void" style="text;strokeColor=none;fillColor=none;align=left;verticalAlign=top;spacingLeft=4;spacingRight=4;overflow=hidden;rotatable=0;points=[[0,0.5],[1,0.5]];portConstraint=eastwest;" vertex="1" parent="OHezRKa3BdkfaNB-0USB-268">
          <mxGeometry y="95.14999961853027" width="214" height="29" as="geometry" />
        </mxCell>
        <mxCell id="OHezRKa3BdkfaNB-0USB-273" value="UpdateCandidatePhaseCommand" style="swimlane;fontStyle=1;align=center;verticalAlign=top;childLayout=stackLayout;horizontal=1;startSize=29.149999618530273;horizontalStack=0;resizeParent=1;resizeParentMax=0;resizeLast=0;collapsible=0;marginBottom=0;" vertex="1" parent="1">
          <mxGeometry x="3035.75" y="361.18400146484373" width="261" height="124.14999961853027" as="geometry" />
        </mxCell>
        <mxCell id="OHezRKa3BdkfaNB-0USB-274" value="-candidateId: int" style="text;strokeColor=none;fillColor=none;align=left;verticalAlign=top;spacingLeft=4;spacingRight=4;overflow=hidden;rotatable=0;points=[[0,0.5],[1,0.5]];portConstraint=eastwest;" vertex="1" parent="OHezRKa3BdkfaNB-0USB-273">
          <mxGeometry y="29.149999618530273" width="261" height="29" as="geometry" />
        </mxCell>
        <mxCell id="OHezRKa3BdkfaNB-0USB-275" value="-phaseData: array" style="text;strokeColor=none;fillColor=none;align=left;verticalAlign=top;spacingLeft=4;spacingRight=4;overflow=hidden;rotatable=0;points=[[0,0.5],[1,0.5]];portConstraint=eastwest;" vertex="1" parent="OHezRKa3BdkfaNB-0USB-273">
          <mxGeometry y="58.14999961853027" width="261" height="29" as="geometry" />
        </mxCell>
        <mxCell id="OHezRKa3BdkfaNB-0USB-276" style="line;strokeWidth=1;fillColor=none;align=left;verticalAlign=middle;spacingTop=-1;spacingLeft=3;spacingRight=3;rotatable=0;labelPosition=right;points=[];portConstraint=eastwest;strokeColor=inherit;" vertex="1" parent="OHezRKa3BdkfaNB-0USB-273">
          <mxGeometry y="87.14999961853027" width="261" height="8" as="geometry" />
        </mxCell>
        <mxCell id="OHezRKa3BdkfaNB-0USB-277" value="+execute() : : void" style="text;strokeColor=none;fillColor=none;align=left;verticalAlign=top;spacingLeft=4;spacingRight=4;overflow=hidden;rotatable=0;points=[[0,0.5],[1,0.5]];portConstraint=eastwest;" vertex="1" parent="OHezRKa3BdkfaNB-0USB-273">
          <mxGeometry y="95.14999961853027" width="261" height="29" as="geometry" />
        </mxCell>
        <mxCell id="OHezRKa3BdkfaNB-0USB-278" value="SendNotificationCommand" style="swimlane;fontStyle=1;align=center;verticalAlign=top;childLayout=stackLayout;horizontal=1;startSize=29.149999618530273;horizontalStack=0;resizeParent=1;resizeParentMax=0;resizeLast=0;collapsible=0;marginBottom=0;" vertex="1" parent="1">
          <mxGeometry x="2251.25" y="505.334001083374" width="213" height="124.14999961853027" as="geometry" />
        </mxCell>
        <mxCell id="OHezRKa3BdkfaNB-0USB-279" value="-userId: int" style="text;strokeColor=none;fillColor=none;align=left;verticalAlign=top;spacingLeft=4;spacingRight=4;overflow=hidden;rotatable=0;points=[[0,0.5],[1,0.5]];portConstraint=eastwest;" vertex="1" parent="OHezRKa3BdkfaNB-0USB-278">
          <mxGeometry y="29.149999618530273" width="213" height="29" as="geometry" />
        </mxCell>
        <mxCell id="OHezRKa3BdkfaNB-0USB-280" value="-notificationContent: string" style="text;strokeColor=none;fillColor=none;align=left;verticalAlign=top;spacingLeft=4;spacingRight=4;overflow=hidden;rotatable=0;points=[[0,0.5],[1,0.5]];portConstraint=eastwest;" vertex="1" parent="OHezRKa3BdkfaNB-0USB-278">
          <mxGeometry y="58.14999961853027" width="213" height="29" as="geometry" />
        </mxCell>
        <mxCell id="OHezRKa3BdkfaNB-0USB-281" style="line;strokeWidth=1;fillColor=none;align=left;verticalAlign=middle;spacingTop=-1;spacingLeft=3;spacingRight=3;rotatable=0;labelPosition=right;points=[];portConstraint=eastwest;strokeColor=inherit;" vertex="1" parent="OHezRKa3BdkfaNB-0USB-278">
          <mxGeometry y="87.14999961853027" width="213" height="8" as="geometry" />
        </mxCell>
        <mxCell id="OHezRKa3BdkfaNB-0USB-282" value="+execute() : : void" style="text;strokeColor=none;fillColor=none;align=left;verticalAlign=top;spacingLeft=4;spacingRight=4;overflow=hidden;rotatable=0;points=[[0,0.5],[1,0.5]];portConstraint=eastwest;" vertex="1" parent="OHezRKa3BdkfaNB-0USB-278">
          <mxGeometry y="95.14999961853027" width="213" height="29" as="geometry" />
        </mxCell>
        <mxCell id="OHezRKa3BdkfaNB-0USB-283" value="&lt;&lt;interface&gt;&gt;&#xa;CommandHandler" style="swimlane;fontStyle=1;align=center;verticalAlign=top;childLayout=stackLayout;horizontal=1;startSize=47.099998474121094;horizontalStack=0;resizeParent=1;resizeParentMax=0;resizeLast=0;collapsible=0;marginBottom=0;" vertex="1" parent="1">
          <mxGeometry x="4075" y="20" width="284" height="86.0999984741211" as="geometry" />
        </mxCell>
        <mxCell id="OHezRKa3BdkfaNB-0USB-284" style="line;strokeWidth=1;fillColor=none;align=left;verticalAlign=middle;spacingTop=-1;spacingLeft=3;spacingRight=3;rotatable=0;labelPosition=right;points=[];portConstraint=eastwest;strokeColor=inherit;" vertex="1" parent="OHezRKa3BdkfaNB-0USB-283">
          <mxGeometry y="47.099998474121094" width="284" height="8" as="geometry" />
        </mxCell>
        <mxCell id="OHezRKa3BdkfaNB-0USB-285" value="+handle(Command command) : : void" style="text;strokeColor=none;fillColor=none;align=left;verticalAlign=top;spacingLeft=4;spacingRight=4;overflow=hidden;rotatable=0;points=[[0,0.5],[1,0.5]];portConstraint=eastwest;" vertex="1" parent="OHezRKa3BdkfaNB-0USB-283">
          <mxGeometry y="55.099998474121094" width="284" height="31" as="geometry" />
        </mxCell>
        <mxCell id="OHezRKa3BdkfaNB-0USB-286" value="InterviewCommandHandler" style="swimlane;fontStyle=1;align=center;verticalAlign=top;childLayout=stackLayout;horizontal=1;startSize=31.399998982747395;horizontalStack=0;resizeParent=1;resizeParentMax=0;resizeLast=0;collapsible=0;marginBottom=0;" vertex="1" parent="1">
          <mxGeometry x="3346.75" y="361.18400146484373" width="382" height="101.39999898274739" as="geometry" />
        </mxCell>
        <mxCell id="OHezRKa3BdkfaNB-0USB-287" value="-interviewRepository: InterviewRepositoryInterface" style="text;strokeColor=none;fillColor=none;align=left;verticalAlign=top;spacingLeft=4;spacingRight=4;overflow=hidden;rotatable=0;points=[[0,0.5],[1,0.5]];portConstraint=eastwest;" vertex="1" parent="OHezRKa3BdkfaNB-0USB-286">
          <mxGeometry y="31.399998982747395" width="382" height="31" as="geometry" />
        </mxCell>
        <mxCell id="OHezRKa3BdkfaNB-0USB-288" style="line;strokeWidth=1;fillColor=none;align=left;verticalAlign=middle;spacingTop=-1;spacingLeft=3;spacingRight=3;rotatable=0;labelPosition=right;points=[];portConstraint=eastwest;strokeColor=inherit;" vertex="1" parent="OHezRKa3BdkfaNB-0USB-286">
          <mxGeometry y="62.39999898274739" width="382" height="8" as="geometry" />
        </mxCell>
        <mxCell id="OHezRKa3BdkfaNB-0USB-289" value="+handle(Command command) : : void" style="text;strokeColor=none;fillColor=none;align=left;verticalAlign=top;spacingLeft=4;spacingRight=4;overflow=hidden;rotatable=0;points=[[0,0.5],[1,0.5]];portConstraint=eastwest;" vertex="1" parent="OHezRKa3BdkfaNB-0USB-286">
          <mxGeometry y="70.39999898274739" width="382" height="31" as="geometry" />
        </mxCell>
        <mxCell id="OHezRKa3BdkfaNB-0USB-290" value="AppreciationCommandHandler" style="swimlane;fontStyle=1;align=center;verticalAlign=top;childLayout=stackLayout;horizontal=1;startSize=31.399998982747395;horizontalStack=0;resizeParent=1;resizeParentMax=0;resizeLast=0;collapsible=0;marginBottom=0;" vertex="1" parent="1">
          <mxGeometry x="3748.75" y="361.18400146484373" width="428" height="101.39999898274739" as="geometry" />
        </mxCell>
        <mxCell id="OHezRKa3BdkfaNB-0USB-291" value="-appreciationRepository: AppreciationRepositoryInterface" style="text;strokeColor=none;fillColor=none;align=left;verticalAlign=top;spacingLeft=4;spacingRight=4;overflow=hidden;rotatable=0;points=[[0,0.5],[1,0.5]];portConstraint=eastwest;" vertex="1" parent="OHezRKa3BdkfaNB-0USB-290">
          <mxGeometry y="31.399998982747395" width="428" height="31" as="geometry" />
        </mxCell>
        <mxCell id="OHezRKa3BdkfaNB-0USB-292" style="line;strokeWidth=1;fillColor=none;align=left;verticalAlign=middle;spacingTop=-1;spacingLeft=3;spacingRight=3;rotatable=0;labelPosition=right;points=[];portConstraint=eastwest;strokeColor=inherit;" vertex="1" parent="OHezRKa3BdkfaNB-0USB-290">
          <mxGeometry y="62.39999898274739" width="428" height="8" as="geometry" />
        </mxCell>
        <mxCell id="OHezRKa3BdkfaNB-0USB-293" value="+handle(Command command) : : void" style="text;strokeColor=none;fillColor=none;align=left;verticalAlign=top;spacingLeft=4;spacingRight=4;overflow=hidden;rotatable=0;points=[[0,0.5],[1,0.5]];portConstraint=eastwest;" vertex="1" parent="OHezRKa3BdkfaNB-0USB-290">
          <mxGeometry y="70.39999898274739" width="428" height="31" as="geometry" />
        </mxCell>
        <mxCell id="OHezRKa3BdkfaNB-0USB-294" value="CandidatePhaseCommandHandler" style="swimlane;fontStyle=1;align=center;verticalAlign=top;childLayout=stackLayout;horizontal=1;startSize=31.399998982747395;horizontalStack=0;resizeParent=1;resizeParentMax=0;resizeLast=0;collapsible=0;marginBottom=0;" vertex="1" parent="1">
          <mxGeometry x="4196.75" y="361.18400146484373" width="472" height="101.39999898274739" as="geometry" />
        </mxCell>
        <mxCell id="OHezRKa3BdkfaNB-0USB-295" value="-candidatePhaseRepository: CandidatePhaseRepositoryInterface" style="text;strokeColor=none;fillColor=none;align=left;verticalAlign=top;spacingLeft=4;spacingRight=4;overflow=hidden;rotatable=0;points=[[0,0.5],[1,0.5]];portConstraint=eastwest;" vertex="1" parent="OHezRKa3BdkfaNB-0USB-294">
          <mxGeometry y="31.399998982747395" width="472" height="31" as="geometry" />
        </mxCell>
        <mxCell id="OHezRKa3BdkfaNB-0USB-296" style="line;strokeWidth=1;fillColor=none;align=left;verticalAlign=middle;spacingTop=-1;spacingLeft=3;spacingRight=3;rotatable=0;labelPosition=right;points=[];portConstraint=eastwest;strokeColor=inherit;" vertex="1" parent="OHezRKa3BdkfaNB-0USB-294">
          <mxGeometry y="62.39999898274739" width="472" height="8" as="geometry" />
        </mxCell>
        <mxCell id="OHezRKa3BdkfaNB-0USB-297" value="+handle(Command command) : : void" style="text;strokeColor=none;fillColor=none;align=left;verticalAlign=top;spacingLeft=4;spacingRight=4;overflow=hidden;rotatable=0;points=[[0,0.5],[1,0.5]];portConstraint=eastwest;" vertex="1" parent="OHezRKa3BdkfaNB-0USB-294">
          <mxGeometry y="70.39999898274739" width="472" height="31" as="geometry" />
        </mxCell>
        <mxCell id="OHezRKa3BdkfaNB-0USB-298" value="NotificationCommandHandler" style="swimlane;fontStyle=1;align=center;verticalAlign=top;childLayout=stackLayout;horizontal=1;startSize=31.399998982747395;horizontalStack=0;resizeParent=1;resizeParentMax=0;resizeLast=0;collapsible=0;marginBottom=0;" vertex="1" parent="1">
          <mxGeometry x="4688.75" y="361.18400146484373" width="415" height="101.39999898274739" as="geometry" />
        </mxCell>
        <mxCell id="OHezRKa3BdkfaNB-0USB-299" value="-notificationRepository: NotificationRepositoryInterface" style="text;strokeColor=none;fillColor=none;align=left;verticalAlign=top;spacingLeft=4;spacingRight=4;overflow=hidden;rotatable=0;points=[[0,0.5],[1,0.5]];portConstraint=eastwest;" vertex="1" parent="OHezRKa3BdkfaNB-0USB-298">
          <mxGeometry y="31.399998982747395" width="415" height="31" as="geometry" />
        </mxCell>
        <mxCell id="OHezRKa3BdkfaNB-0USB-300" style="line;strokeWidth=1;fillColor=none;align=left;verticalAlign=middle;spacingTop=-1;spacingLeft=3;spacingRight=3;rotatable=0;labelPosition=right;points=[];portConstraint=eastwest;strokeColor=inherit;" vertex="1" parent="OHezRKa3BdkfaNB-0USB-298">
          <mxGeometry y="62.39999898274739" width="415" height="8" as="geometry" />
        </mxCell>
        <mxCell id="OHezRKa3BdkfaNB-0USB-301" value="+handle(Command command) : : void" style="text;strokeColor=none;fillColor=none;align=left;verticalAlign=top;spacingLeft=4;spacingRight=4;overflow=hidden;rotatable=0;points=[[0,0.5],[1,0.5]];portConstraint=eastwest;" vertex="1" parent="OHezRKa3BdkfaNB-0USB-298">
          <mxGeometry y="70.39999898274739" width="415" height="31" as="geometry" />
        </mxCell>
        <mxCell id="OHezRKa3BdkfaNB-0USB-302" value="&lt;&lt;interface&gt;&gt;&#xa;Event" style="swimlane;fontStyle=1;align=center;verticalAlign=top;childLayout=stackLayout;horizontal=1;startSize=47.099998474121094;horizontalStack=0;resizeParent=1;resizeParentMax=0;resizeLast=0;collapsible=0;marginBottom=0;" vertex="1" parent="1">
          <mxGeometry x="513.5" y="764.759001083374" width="153" height="86.0999984741211" as="geometry" />
        </mxCell>
        <mxCell id="OHezRKa3BdkfaNB-0USB-303" style="line;strokeWidth=1;fillColor=none;align=left;verticalAlign=middle;spacingTop=-1;spacingLeft=3;spacingRight=3;rotatable=0;labelPosition=right;points=[];portConstraint=eastwest;strokeColor=inherit;" vertex="1" parent="OHezRKa3BdkfaNB-0USB-302">
          <mxGeometry y="47.099998474121094" width="153" height="8" as="geometry" />
        </mxCell>
        <mxCell id="OHezRKa3BdkfaNB-0USB-304" value="+toArray() : : array" style="text;strokeColor=none;fillColor=none;align=left;verticalAlign=top;spacingLeft=4;spacingRight=4;overflow=hidden;rotatable=0;points=[[0,0.5],[1,0.5]];portConstraint=eastwest;" vertex="1" parent="OHezRKa3BdkfaNB-0USB-302">
          <mxGeometry y="55.099998474121094" width="153" height="31" as="geometry" />
        </mxCell>
        <mxCell id="OHezRKa3BdkfaNB-0USB-305" value="InterviewScheduledEvent" style="swimlane;fontStyle=1;align=center;verticalAlign=top;childLayout=stackLayout;horizontal=1;startSize=29.149999618530273;horizontalStack=0;resizeParent=1;resizeParentMax=0;resizeLast=0;collapsible=0;marginBottom=0;" vertex="1" parent="1">
          <mxGeometry x="101" y="894.4840005111694" width="206" height="124.14999961853027" as="geometry" />
        </mxCell>
        <mxCell id="OHezRKa3BdkfaNB-0USB-306" value="-interviewId: int" style="text;strokeColor=none;fillColor=none;align=left;verticalAlign=top;spacingLeft=4;spacingRight=4;overflow=hidden;rotatable=0;points=[[0,0.5],[1,0.5]];portConstraint=eastwest;" vertex="1" parent="OHezRKa3BdkfaNB-0USB-305">
          <mxGeometry y="29.149999618530273" width="206" height="29" as="geometry" />
        </mxCell>
        <mxCell id="OHezRKa3BdkfaNB-0USB-307" value="-scheduledDate: DateTime" style="text;strokeColor=none;fillColor=none;align=left;verticalAlign=top;spacingLeft=4;spacingRight=4;overflow=hidden;rotatable=0;points=[[0,0.5],[1,0.5]];portConstraint=eastwest;" vertex="1" parent="OHezRKa3BdkfaNB-0USB-305">
          <mxGeometry y="58.14999961853027" width="206" height="29" as="geometry" />
        </mxCell>
        <mxCell id="OHezRKa3BdkfaNB-0USB-308" style="line;strokeWidth=1;fillColor=none;align=left;verticalAlign=middle;spacingTop=-1;spacingLeft=3;spacingRight=3;rotatable=0;labelPosition=right;points=[];portConstraint=eastwest;strokeColor=inherit;" vertex="1" parent="OHezRKa3BdkfaNB-0USB-305">
          <mxGeometry y="87.14999961853027" width="206" height="8" as="geometry" />
        </mxCell>
        <mxCell id="OHezRKa3BdkfaNB-0USB-309" value="+toArray() : : array" style="text;strokeColor=none;fillColor=none;align=left;verticalAlign=top;spacingLeft=4;spacingRight=4;overflow=hidden;rotatable=0;points=[[0,0.5],[1,0.5]];portConstraint=eastwest;" vertex="1" parent="OHezRKa3BdkfaNB-0USB-305">
          <mxGeometry y="95.14999961853027" width="206" height="29" as="geometry" />
        </mxCell>
        <mxCell id="OHezRKa3BdkfaNB-0USB-310" value="InterviewStatusUpdatedEvent" style="swimlane;fontStyle=1;align=center;verticalAlign=top;childLayout=stackLayout;horizontal=1;startSize=29.149999618530273;horizontalStack=0;resizeParent=1;resizeParentMax=0;resizeLast=0;collapsible=0;marginBottom=0;" vertex="1" parent="1">
          <mxGeometry x="327" y="894.4840005111694" width="238" height="124.14999961853027" as="geometry" />
        </mxCell>
        <mxCell id="OHezRKa3BdkfaNB-0USB-311" value="-interviewId: int" style="text;strokeColor=none;fillColor=none;align=left;verticalAlign=top;spacingLeft=4;spacingRight=4;overflow=hidden;rotatable=0;points=[[0,0.5],[1,0.5]];portConstraint=eastwest;" vertex="1" parent="OHezRKa3BdkfaNB-0USB-310">
          <mxGeometry y="29.149999618530273" width="238" height="29" as="geometry" />
        </mxCell>
        <mxCell id="OHezRKa3BdkfaNB-0USB-312" value="-newStatus: string" style="text;strokeColor=none;fillColor=none;align=left;verticalAlign=top;spacingLeft=4;spacingRight=4;overflow=hidden;rotatable=0;points=[[0,0.5],[1,0.5]];portConstraint=eastwest;" vertex="1" parent="OHezRKa3BdkfaNB-0USB-310">
          <mxGeometry y="58.14999961853027" width="238" height="29" as="geometry" />
        </mxCell>
        <mxCell id="OHezRKa3BdkfaNB-0USB-313" style="line;strokeWidth=1;fillColor=none;align=left;verticalAlign=middle;spacingTop=-1;spacingLeft=3;spacingRight=3;rotatable=0;labelPosition=right;points=[];portConstraint=eastwest;strokeColor=inherit;" vertex="1" parent="OHezRKa3BdkfaNB-0USB-310">
          <mxGeometry y="87.14999961853027" width="238" height="8" as="geometry" />
        </mxCell>
        <mxCell id="OHezRKa3BdkfaNB-0USB-314" value="+toArray() : : array" style="text;strokeColor=none;fillColor=none;align=left;verticalAlign=top;spacingLeft=4;spacingRight=4;overflow=hidden;rotatable=0;points=[[0,0.5],[1,0.5]];portConstraint=eastwest;" vertex="1" parent="OHezRKa3BdkfaNB-0USB-310">
          <mxGeometry y="95.14999961853027" width="238" height="29" as="geometry" />
        </mxCell>
        <mxCell id="OHezRKa3BdkfaNB-0USB-315" value="AppreciationAddedEvent" style="swimlane;fontStyle=1;align=center;verticalAlign=top;childLayout=stackLayout;horizontal=1;startSize=29.149999618530273;horizontalStack=0;resizeParent=1;resizeParentMax=0;resizeLast=0;collapsible=0;marginBottom=0;" vertex="1" parent="1">
          <mxGeometry x="615" y="894.4840005111694" width="201" height="124.14999961853027" as="geometry" />
        </mxCell>
        <mxCell id="OHezRKa3BdkfaNB-0USB-316" value="-interviewId: int" style="text;strokeColor=none;fillColor=none;align=left;verticalAlign=top;spacingLeft=4;spacingRight=4;overflow=hidden;rotatable=0;points=[[0,0.5],[1,0.5]];portConstraint=eastwest;" vertex="1" parent="OHezRKa3BdkfaNB-0USB-315">
          <mxGeometry y="29.149999618530273" width="201" height="29" as="geometry" />
        </mxCell>
        <mxCell id="OHezRKa3BdkfaNB-0USB-317" value="-appreciationId: int" style="text;strokeColor=none;fillColor=none;align=left;verticalAlign=top;spacingLeft=4;spacingRight=4;overflow=hidden;rotatable=0;points=[[0,0.5],[1,0.5]];portConstraint=eastwest;" vertex="1" parent="OHezRKa3BdkfaNB-0USB-315">
          <mxGeometry y="58.14999961853027" width="201" height="29" as="geometry" />
        </mxCell>
        <mxCell id="OHezRKa3BdkfaNB-0USB-318" style="line;strokeWidth=1;fillColor=none;align=left;verticalAlign=middle;spacingTop=-1;spacingLeft=3;spacingRight=3;rotatable=0;labelPosition=right;points=[];portConstraint=eastwest;strokeColor=inherit;" vertex="1" parent="OHezRKa3BdkfaNB-0USB-315">
          <mxGeometry y="87.14999961853027" width="201" height="8" as="geometry" />
        </mxCell>
        <mxCell id="OHezRKa3BdkfaNB-0USB-319" value="+toArray() : : array" style="text;strokeColor=none;fillColor=none;align=left;verticalAlign=top;spacingLeft=4;spacingRight=4;overflow=hidden;rotatable=0;points=[[0,0.5],[1,0.5]];portConstraint=eastwest;" vertex="1" parent="OHezRKa3BdkfaNB-0USB-315">
          <mxGeometry y="95.14999961853027" width="201" height="29" as="geometry" />
        </mxCell>
        <mxCell id="OHezRKa3BdkfaNB-0USB-320" value="CandidatePhaseUpdatedEvent" style="swimlane;fontStyle=1;align=center;verticalAlign=top;childLayout=stackLayout;horizontal=1;startSize=29.149999618530273;horizontalStack=0;resizeParent=1;resizeParentMax=0;resizeLast=0;collapsible=0;marginBottom=0;" vertex="1" parent="1">
          <mxGeometry x="836" y="894.4840005111694" width="239" height="124.14999961853027" as="geometry" />
        </mxCell>
        <mxCell id="OHezRKa3BdkfaNB-0USB-321" value="-candidateId: int" style="text;strokeColor=none;fillColor=none;align=left;verticalAlign=top;spacingLeft=4;spacingRight=4;overflow=hidden;rotatable=0;points=[[0,0.5],[1,0.5]];portConstraint=eastwest;" vertex="1" parent="OHezRKa3BdkfaNB-0USB-320">
          <mxGeometry y="29.149999618530273" width="239" height="29" as="geometry" />
        </mxCell>
        <mxCell id="OHezRKa3BdkfaNB-0USB-322" value="-newPhase: string" style="text;strokeColor=none;fillColor=none;align=left;verticalAlign=top;spacingLeft=4;spacingRight=4;overflow=hidden;rotatable=0;points=[[0,0.5],[1,0.5]];portConstraint=eastwest;" vertex="1" parent="OHezRKa3BdkfaNB-0USB-320">
          <mxGeometry y="58.14999961853027" width="239" height="29" as="geometry" />
        </mxCell>
        <mxCell id="OHezRKa3BdkfaNB-0USB-323" style="line;strokeWidth=1;fillColor=none;align=left;verticalAlign=middle;spacingTop=-1;spacingLeft=3;spacingRight=3;rotatable=0;labelPosition=right;points=[];portConstraint=eastwest;strokeColor=inherit;" vertex="1" parent="OHezRKa3BdkfaNB-0USB-320">
          <mxGeometry y="87.14999961853027" width="239" height="8" as="geometry" />
        </mxCell>
        <mxCell id="OHezRKa3BdkfaNB-0USB-324" value="+toArray() : : array" style="text;strokeColor=none;fillColor=none;align=left;verticalAlign=top;spacingLeft=4;spacingRight=4;overflow=hidden;rotatable=0;points=[[0,0.5],[1,0.5]];portConstraint=eastwest;" vertex="1" parent="OHezRKa3BdkfaNB-0USB-320">
          <mxGeometry y="95.14999961853027" width="239" height="29" as="geometry" />
        </mxCell>
        <mxCell id="OHezRKa3BdkfaNB-0USB-325" value="NotificationSentEvent" style="swimlane;fontStyle=1;align=center;verticalAlign=top;childLayout=stackLayout;horizontal=1;startSize=29.149999618530273;horizontalStack=0;resizeParent=1;resizeParentMax=0;resizeLast=0;collapsible=0;marginBottom=0;" vertex="1" parent="1">
          <mxGeometry x="114.5" y="1038.6340001296996" width="179" height="124.14999961853027" as="geometry" />
        </mxCell>
        <mxCell id="OHezRKa3BdkfaNB-0USB-326" value="-userId: int" style="text;strokeColor=none;fillColor=none;align=left;verticalAlign=top;spacingLeft=4;spacingRight=4;overflow=hidden;rotatable=0;points=[[0,0.5],[1,0.5]];portConstraint=eastwest;" vertex="1" parent="OHezRKa3BdkfaNB-0USB-325">
          <mxGeometry y="29.149999618530273" width="179" height="29" as="geometry" />
        </mxCell>
        <mxCell id="OHezRKa3BdkfaNB-0USB-327" value="-notificationId: int" style="text;strokeColor=none;fillColor=none;align=left;verticalAlign=top;spacingLeft=4;spacingRight=4;overflow=hidden;rotatable=0;points=[[0,0.5],[1,0.5]];portConstraint=eastwest;" vertex="1" parent="OHezRKa3BdkfaNB-0USB-325">
          <mxGeometry y="58.14999961853027" width="179" height="29" as="geometry" />
        </mxCell>
        <mxCell id="OHezRKa3BdkfaNB-0USB-328" style="line;strokeWidth=1;fillColor=none;align=left;verticalAlign=middle;spacingTop=-1;spacingLeft=3;spacingRight=3;rotatable=0;labelPosition=right;points=[];portConstraint=eastwest;strokeColor=inherit;" vertex="1" parent="OHezRKa3BdkfaNB-0USB-325">
          <mxGeometry y="87.14999961853027" width="179" height="8" as="geometry" />
        </mxCell>
        <mxCell id="OHezRKa3BdkfaNB-0USB-329" value="+toArray() : : array" style="text;strokeColor=none;fillColor=none;align=left;verticalAlign=top;spacingLeft=4;spacingRight=4;overflow=hidden;rotatable=0;points=[[0,0.5],[1,0.5]];portConstraint=eastwest;" vertex="1" parent="OHezRKa3BdkfaNB-0USB-325">
          <mxGeometry y="95.14999961853027" width="179" height="29" as="geometry" />
        </mxCell>
        <mxCell id="OHezRKa3BdkfaNB-0USB-330" value="&lt;&lt;interface&gt;&gt;&#xa;EventHandler" style="swimlane;fontStyle=1;align=center;verticalAlign=top;childLayout=stackLayout;horizontal=1;startSize=47.099998474121094;horizontalStack=0;resizeParent=1;resizeParentMax=0;resizeLast=0;collapsible=0;marginBottom=0;" vertex="1" parent="1">
          <mxGeometry x="1497.5" y="764.759001083374" width="225" height="86.0999984741211" as="geometry" />
        </mxCell>
        <mxCell id="OHezRKa3BdkfaNB-0USB-331" style="line;strokeWidth=1;fillColor=none;align=left;verticalAlign=middle;spacingTop=-1;spacingLeft=3;spacingRight=3;rotatable=0;labelPosition=right;points=[];portConstraint=eastwest;strokeColor=inherit;" vertex="1" parent="OHezRKa3BdkfaNB-0USB-330">
          <mxGeometry y="47.099998474121094" width="225" height="8" as="geometry" />
        </mxCell>
        <mxCell id="OHezRKa3BdkfaNB-0USB-332" value="+handle(Event event) : : void" style="text;strokeColor=none;fillColor=none;align=left;verticalAlign=top;spacingLeft=4;spacingRight=4;overflow=hidden;rotatable=0;points=[[0,0.5],[1,0.5]];portConstraint=eastwest;" vertex="1" parent="OHezRKa3BdkfaNB-0USB-330">
          <mxGeometry y="55.099998474121094" width="225" height="31" as="geometry" />
        </mxCell>
        <mxCell id="OHezRKa3BdkfaNB-0USB-333" value="InterviewEventHandler" style="swimlane;fontStyle=1;align=center;verticalAlign=top;childLayout=stackLayout;horizontal=1;startSize=31.399998982747395;horizontalStack=0;resizeParent=1;resizeParentMax=0;resizeLast=0;collapsible=0;marginBottom=0;" vertex="1" parent="1">
          <mxGeometry x="1125" y="894.4840005111694" width="225" height="101.39999898274739" as="geometry" />
        </mxCell>
        <mxCell id="OHezRKa3BdkfaNB-0USB-334" value="-mongoDbClient: Client" style="text;strokeColor=none;fillColor=none;align=left;verticalAlign=top;spacingLeft=4;spacingRight=4;overflow=hidden;rotatable=0;points=[[0,0.5],[1,0.5]];portConstraint=eastwest;" vertex="1" parent="OHezRKa3BdkfaNB-0USB-333">
          <mxGeometry y="31.399998982747395" width="225" height="31" as="geometry" />
        </mxCell>
        <mxCell id="OHezRKa3BdkfaNB-0USB-335" style="line;strokeWidth=1;fillColor=none;align=left;verticalAlign=middle;spacingTop=-1;spacingLeft=3;spacingRight=3;rotatable=0;labelPosition=right;points=[];portConstraint=eastwest;strokeColor=inherit;" vertex="1" parent="OHezRKa3BdkfaNB-0USB-333">
          <mxGeometry y="62.39999898274739" width="225" height="8" as="geometry" />
        </mxCell>
        <mxCell id="OHezRKa3BdkfaNB-0USB-336" value="+handle(Event event) : : void" style="text;strokeColor=none;fillColor=none;align=left;verticalAlign=top;spacingLeft=4;spacingRight=4;overflow=hidden;rotatable=0;points=[[0,0.5],[1,0.5]];portConstraint=eastwest;" vertex="1" parent="OHezRKa3BdkfaNB-0USB-333">
          <mxGeometry y="70.39999898274739" width="225" height="31" as="geometry" />
        </mxCell>
        <mxCell id="OHezRKa3BdkfaNB-0USB-337" value="AppreciationEventHandler" style="swimlane;fontStyle=1;align=center;verticalAlign=top;childLayout=stackLayout;horizontal=1;startSize=31.399998982747395;horizontalStack=0;resizeParent=1;resizeParentMax=0;resizeLast=0;collapsible=0;marginBottom=0;" vertex="1" parent="1">
          <mxGeometry x="1370" y="894.4840005111694" width="225" height="101.39999898274739" as="geometry" />
        </mxCell>
        <mxCell id="OHezRKa3BdkfaNB-0USB-338" value="-mongoDbClient: Client" style="text;strokeColor=none;fillColor=none;align=left;verticalAlign=top;spacingLeft=4;spacingRight=4;overflow=hidden;rotatable=0;points=[[0,0.5],[1,0.5]];portConstraint=eastwest;" vertex="1" parent="OHezRKa3BdkfaNB-0USB-337">
          <mxGeometry y="31.399998982747395" width="225" height="31" as="geometry" />
        </mxCell>
        <mxCell id="OHezRKa3BdkfaNB-0USB-339" style="line;strokeWidth=1;fillColor=none;align=left;verticalAlign=middle;spacingTop=-1;spacingLeft=3;spacingRight=3;rotatable=0;labelPosition=right;points=[];portConstraint=eastwest;strokeColor=inherit;" vertex="1" parent="OHezRKa3BdkfaNB-0USB-337">
          <mxGeometry y="62.39999898274739" width="225" height="8" as="geometry" />
        </mxCell>
        <mxCell id="OHezRKa3BdkfaNB-0USB-340" value="+handle(Event event) : : void" style="text;strokeColor=none;fillColor=none;align=left;verticalAlign=top;spacingLeft=4;spacingRight=4;overflow=hidden;rotatable=0;points=[[0,0.5],[1,0.5]];portConstraint=eastwest;" vertex="1" parent="OHezRKa3BdkfaNB-0USB-337">
          <mxGeometry y="70.39999898274739" width="225" height="31" as="geometry" />
        </mxCell>
        <mxCell id="OHezRKa3BdkfaNB-0USB-341" value="CandidatePhaseEventHandler" style="swimlane;fontStyle=1;align=center;verticalAlign=top;childLayout=stackLayout;horizontal=1;startSize=31.399998982747395;horizontalStack=0;resizeParent=1;resizeParentMax=0;resizeLast=0;collapsible=0;marginBottom=0;" vertex="1" parent="1">
          <mxGeometry x="1615" y="894.4840005111694" width="235" height="101.39999898274739" as="geometry" />
        </mxCell>
        <mxCell id="OHezRKa3BdkfaNB-0USB-342" value="-mongoDbClient: Client" style="text;strokeColor=none;fillColor=none;align=left;verticalAlign=top;spacingLeft=4;spacingRight=4;overflow=hidden;rotatable=0;points=[[0,0.5],[1,0.5]];portConstraint=eastwest;" vertex="1" parent="OHezRKa3BdkfaNB-0USB-341">
          <mxGeometry y="31.399998982747395" width="235" height="31" as="geometry" />
        </mxCell>
        <mxCell id="OHezRKa3BdkfaNB-0USB-343" style="line;strokeWidth=1;fillColor=none;align=left;verticalAlign=middle;spacingTop=-1;spacingLeft=3;spacingRight=3;rotatable=0;labelPosition=right;points=[];portConstraint=eastwest;strokeColor=inherit;" vertex="1" parent="OHezRKa3BdkfaNB-0USB-341">
          <mxGeometry y="62.39999898274739" width="235" height="8" as="geometry" />
        </mxCell>
        <mxCell id="OHezRKa3BdkfaNB-0USB-344" value="+handle(Event event) : : void" style="text;strokeColor=none;fillColor=none;align=left;verticalAlign=top;spacingLeft=4;spacingRight=4;overflow=hidden;rotatable=0;points=[[0,0.5],[1,0.5]];portConstraint=eastwest;" vertex="1" parent="OHezRKa3BdkfaNB-0USB-341">
          <mxGeometry y="70.39999898274739" width="235" height="31" as="geometry" />
        </mxCell>
        <mxCell id="OHezRKa3BdkfaNB-0USB-345" value="NotificationEventHandler" style="swimlane;fontStyle=1;align=center;verticalAlign=top;childLayout=stackLayout;horizontal=1;startSize=31.399998982747395;horizontalStack=0;resizeParent=1;resizeParentMax=0;resizeLast=0;collapsible=0;marginBottom=0;" vertex="1" parent="1">
          <mxGeometry x="1870" y="894.4840005111694" width="225" height="101.39999898274739" as="geometry" />
        </mxCell>
        <mxCell id="OHezRKa3BdkfaNB-0USB-346" value="-mongoDbClient: Client" style="text;strokeColor=none;fillColor=none;align=left;verticalAlign=top;spacingLeft=4;spacingRight=4;overflow=hidden;rotatable=0;points=[[0,0.5],[1,0.5]];portConstraint=eastwest;" vertex="1" parent="OHezRKa3BdkfaNB-0USB-345">
          <mxGeometry y="31.399998982747395" width="225" height="31" as="geometry" />
        </mxCell>
        <mxCell id="OHezRKa3BdkfaNB-0USB-347" style="line;strokeWidth=1;fillColor=none;align=left;verticalAlign=middle;spacingTop=-1;spacingLeft=3;spacingRight=3;rotatable=0;labelPosition=right;points=[];portConstraint=eastwest;strokeColor=inherit;" vertex="1" parent="OHezRKa3BdkfaNB-0USB-345">
          <mxGeometry y="62.39999898274739" width="225" height="8" as="geometry" />
        </mxCell>
        <mxCell id="OHezRKa3BdkfaNB-0USB-348" value="+handle(Event event) : : void" style="text;strokeColor=none;fillColor=none;align=left;verticalAlign=top;spacingLeft=4;spacingRight=4;overflow=hidden;rotatable=0;points=[[0,0.5],[1,0.5]];portConstraint=eastwest;" vertex="1" parent="OHezRKa3BdkfaNB-0USB-345">
          <mxGeometry y="70.39999898274739" width="225" height="31" as="geometry" />
        </mxCell>
        <mxCell id="OHezRKa3BdkfaNB-0USB-349" value="&lt;&lt;interface&gt;&gt;&#xa;RepositoryInterface" style="swimlane;fontStyle=1;align=center;verticalAlign=top;childLayout=stackLayout;horizontal=1;startSize=43.72499942779541;horizontalStack=0;resizeParent=1;resizeParentMax=0;resizeLast=0;collapsible=0;marginBottom=0;" vertex="1" parent="1">
          <mxGeometry x="2668.75" y="764.759001083374" width="216" height="109.72499942779541" as="geometry" />
        </mxCell>
        <mxCell id="OHezRKa3BdkfaNB-0USB-350" style="line;strokeWidth=1;fillColor=none;align=left;verticalAlign=middle;spacingTop=-1;spacingLeft=3;spacingRight=3;rotatable=0;labelPosition=right;points=[];portConstraint=eastwest;strokeColor=inherit;" vertex="1" parent="OHezRKa3BdkfaNB-0USB-349">
          <mxGeometry y="43.72499942779541" width="216" height="8" as="geometry" />
        </mxCell>
        <mxCell id="OHezRKa3BdkfaNB-0USB-351" value="+findById(int id) : : object" style="text;strokeColor=none;fillColor=none;align=left;verticalAlign=top;spacingLeft=4;spacingRight=4;overflow=hidden;rotatable=0;points=[[0,0.5],[1,0.5]];portConstraint=eastwest;" vertex="1" parent="OHezRKa3BdkfaNB-0USB-349">
          <mxGeometry y="51.72499942779541" width="216" height="29" as="geometry" />
        </mxCell>
        <mxCell id="OHezRKa3BdkfaNB-0USB-352" value="+save(object entity) : : void" style="text;strokeColor=none;fillColor=none;align=left;verticalAlign=top;spacingLeft=4;spacingRight=4;overflow=hidden;rotatable=0;points=[[0,0.5],[1,0.5]];portConstraint=eastwest;" vertex="1" parent="OHezRKa3BdkfaNB-0USB-349">
          <mxGeometry y="80.72499942779541" width="216" height="29" as="geometry" />
        </mxCell>
        <mxCell id="OHezRKa3BdkfaNB-0USB-353" value="InterviewRepository" style="swimlane;fontStyle=1;align=center;verticalAlign=top;childLayout=stackLayout;horizontal=1;startSize=26.91428484235491;horizontalStack=0;resizeParent=1;resizeParentMax=0;resizeLast=0;collapsible=0;marginBottom=0;" vertex="1" parent="1">
          <mxGeometry x="2145" y="894.4840005111694" width="263" height="88.9142848423549" as="geometry" />
        </mxCell>
        <mxCell id="OHezRKa3BdkfaNB-0USB-354" style="line;strokeWidth=1;fillColor=none;align=left;verticalAlign=middle;spacingTop=-1;spacingLeft=3;spacingRight=3;rotatable=0;labelPosition=right;points=[];portConstraint=eastwest;strokeColor=inherit;" vertex="1" parent="OHezRKa3BdkfaNB-0USB-353">
          <mxGeometry y="26.91428484235491" width="263" height="8" as="geometry" />
        </mxCell>
        <mxCell id="OHezRKa3BdkfaNB-0USB-355" value="+findById(int id) : : Interview" style="text;strokeColor=none;fillColor=none;align=left;verticalAlign=top;spacingLeft=4;spacingRight=4;overflow=hidden;rotatable=0;points=[[0,0.5],[1,0.5]];portConstraint=eastwest;" vertex="1" parent="OHezRKa3BdkfaNB-0USB-353">
          <mxGeometry y="34.91428484235491" width="263" height="27" as="geometry" />
        </mxCell>
        <mxCell id="OHezRKa3BdkfaNB-0USB-356" value="+save(Interview interview) : : void" style="text;strokeColor=none;fillColor=none;align=left;verticalAlign=top;spacingLeft=4;spacingRight=4;overflow=hidden;rotatable=0;points=[[0,0.5],[1,0.5]];portConstraint=eastwest;" vertex="1" parent="OHezRKa3BdkfaNB-0USB-353">
          <mxGeometry y="61.91428484235491" width="263" height="27" as="geometry" />
        </mxCell>
        <mxCell id="OHezRKa3BdkfaNB-0USB-357" value="AppreciationRepository" style="swimlane;fontStyle=1;align=center;verticalAlign=top;childLayout=stackLayout;horizontal=1;startSize=26.91428484235491;horizontalStack=0;resizeParent=1;resizeParentMax=0;resizeLast=0;collapsible=0;marginBottom=0;" vertex="1" parent="1">
          <mxGeometry x="2428" y="894.4840005111694" width="309" height="88.9142848423549" as="geometry" />
        </mxCell>
        <mxCell id="OHezRKa3BdkfaNB-0USB-358" style="line;strokeWidth=1;fillColor=none;align=left;verticalAlign=middle;spacingTop=-1;spacingLeft=3;spacingRight=3;rotatable=0;labelPosition=right;points=[];portConstraint=eastwest;strokeColor=inherit;" vertex="1" parent="OHezRKa3BdkfaNB-0USB-357">
          <mxGeometry y="26.91428484235491" width="309" height="8" as="geometry" />
        </mxCell>
        <mxCell id="OHezRKa3BdkfaNB-0USB-359" value="+findById(int id) : : Appreciation" style="text;strokeColor=none;fillColor=none;align=left;verticalAlign=top;spacingLeft=4;spacingRight=4;overflow=hidden;rotatable=0;points=[[0,0.5],[1,0.5]];portConstraint=eastwest;" vertex="1" parent="OHezRKa3BdkfaNB-0USB-357">
          <mxGeometry y="34.91428484235491" width="309" height="27" as="geometry" />
        </mxCell>
        <mxCell id="OHezRKa3BdkfaNB-0USB-360" value="+save(Appreciation appreciation) : : void" style="text;strokeColor=none;fillColor=none;align=left;verticalAlign=top;spacingLeft=4;spacingRight=4;overflow=hidden;rotatable=0;points=[[0,0.5],[1,0.5]];portConstraint=eastwest;" vertex="1" parent="OHezRKa3BdkfaNB-0USB-357">
          <mxGeometry y="61.91428484235491" width="309" height="27" as="geometry" />
        </mxCell>
        <mxCell id="OHezRKa3BdkfaNB-0USB-361" value="CandidatePhaseRepository" style="swimlane;fontStyle=1;align=center;verticalAlign=top;childLayout=stackLayout;horizontal=1;startSize=26.91428484235491;horizontalStack=0;resizeParent=1;resizeParentMax=0;resizeLast=0;collapsible=0;marginBottom=0;" vertex="1" parent="1">
          <mxGeometry x="2757" y="894.4840005111694" width="352" height="88.9142848423549" as="geometry" />
        </mxCell>
        <mxCell id="OHezRKa3BdkfaNB-0USB-362" style="line;strokeWidth=1;fillColor=none;align=left;verticalAlign=middle;spacingTop=-1;spacingLeft=3;spacingRight=3;rotatable=0;labelPosition=right;points=[];portConstraint=eastwest;strokeColor=inherit;" vertex="1" parent="OHezRKa3BdkfaNB-0USB-361">
          <mxGeometry y="26.91428484235491" width="352" height="8" as="geometry" />
        </mxCell>
        <mxCell id="OHezRKa3BdkfaNB-0USB-363" value="+findById(int id) : : CandidatePhase" style="text;strokeColor=none;fillColor=none;align=left;verticalAlign=top;spacingLeft=4;spacingRight=4;overflow=hidden;rotatable=0;points=[[0,0.5],[1,0.5]];portConstraint=eastwest;" vertex="1" parent="OHezRKa3BdkfaNB-0USB-361">
          <mxGeometry y="34.91428484235491" width="352" height="27" as="geometry" />
        </mxCell>
        <mxCell id="OHezRKa3BdkfaNB-0USB-364" value="+save(CandidatePhase candidatePhase) : : void" style="text;strokeColor=none;fillColor=none;align=left;verticalAlign=top;spacingLeft=4;spacingRight=4;overflow=hidden;rotatable=0;points=[[0,0.5],[1,0.5]];portConstraint=eastwest;" vertex="1" parent="OHezRKa3BdkfaNB-0USB-361">
          <mxGeometry y="61.91428484235491" width="352" height="27" as="geometry" />
        </mxCell>
        <mxCell id="OHezRKa3BdkfaNB-0USB-365" value="NotificationRepository" style="swimlane;fontStyle=1;align=center;verticalAlign=top;childLayout=stackLayout;horizontal=1;startSize=26.91428484235491;horizontalStack=0;resizeParent=1;resizeParentMax=0;resizeLast=0;collapsible=0;marginBottom=0;" vertex="1" parent="1">
          <mxGeometry x="3129" y="894.4840005111694" width="296" height="88.9142848423549" as="geometry" />
        </mxCell>
        <mxCell id="OHezRKa3BdkfaNB-0USB-366" style="line;strokeWidth=1;fillColor=none;align=left;verticalAlign=middle;spacingTop=-1;spacingLeft=3;spacingRight=3;rotatable=0;labelPosition=right;points=[];portConstraint=eastwest;strokeColor=inherit;" vertex="1" parent="OHezRKa3BdkfaNB-0USB-365">
          <mxGeometry y="26.91428484235491" width="296" height="8" as="geometry" />
        </mxCell>
        <mxCell id="OHezRKa3BdkfaNB-0USB-367" value="+findById(int id) : : Notification" style="text;strokeColor=none;fillColor=none;align=left;verticalAlign=top;spacingLeft=4;spacingRight=4;overflow=hidden;rotatable=0;points=[[0,0.5],[1,0.5]];portConstraint=eastwest;" vertex="1" parent="OHezRKa3BdkfaNB-0USB-365">
          <mxGeometry y="34.91428484235491" width="296" height="27" as="geometry" />
        </mxCell>
        <mxCell id="OHezRKa3BdkfaNB-0USB-368" value="+save(Notification notification) : : void" style="text;strokeColor=none;fillColor=none;align=left;verticalAlign=top;spacingLeft=4;spacingRight=4;overflow=hidden;rotatable=0;points=[[0,0.5],[1,0.5]];portConstraint=eastwest;" vertex="1" parent="OHezRKa3BdkfaNB-0USB-365">
          <mxGeometry y="61.91428484235491" width="296" height="27" as="geometry" />
        </mxCell>
        <mxCell id="OHezRKa3BdkfaNB-0USB-369" value="&lt;&lt;interface&gt;&gt;&#xa;ReadModelInterface" style="swimlane;fontStyle=1;align=center;verticalAlign=top;childLayout=stackLayout;horizontal=1;startSize=47.099998474121094;horizontalStack=0;resizeParent=1;resizeParentMax=0;resizeLast=0;collapsible=0;marginBottom=0;" vertex="1" parent="1">
          <mxGeometry x="4135" y="764.759001083374" width="164" height="86.0999984741211" as="geometry" />
        </mxCell>
        <mxCell id="OHezRKa3BdkfaNB-0USB-370" style="line;strokeWidth=1;fillColor=none;align=left;verticalAlign=middle;spacingTop=-1;spacingLeft=3;spacingRight=3;rotatable=0;labelPosition=right;points=[];portConstraint=eastwest;strokeColor=inherit;" vertex="1" parent="OHezRKa3BdkfaNB-0USB-369">
          <mxGeometry y="47.099998474121094" width="164" height="8" as="geometry" />
        </mxCell>
        <mxCell id="OHezRKa3BdkfaNB-0USB-371" value="+toArray() : : array" style="text;strokeColor=none;fillColor=none;align=left;verticalAlign=top;spacingLeft=4;spacingRight=4;overflow=hidden;rotatable=0;points=[[0,0.5],[1,0.5]];portConstraint=eastwest;" vertex="1" parent="OHezRKa3BdkfaNB-0USB-369">
          <mxGeometry y="55.099998474121094" width="164" height="31" as="geometry" />
        </mxCell>
        <mxCell id="OHezRKa3BdkfaNB-0USB-372" value="InterviewReadModel" style="swimlane;fontStyle=1;align=center;verticalAlign=top;childLayout=stackLayout;horizontal=1;startSize=25.774999618530273;horizontalStack=0;resizeParent=1;resizeParentMax=0;resizeLast=0;collapsible=0;marginBottom=0;" vertex="1" parent="1">
          <mxGeometry x="4116.5" y="894.4840005111694" width="201" height="215.77499961853027" as="geometry" />
        </mxCell>
        <mxCell id="OHezRKa3BdkfaNB-0USB-373" value="-id: int" style="text;strokeColor=none;fillColor=none;align=left;verticalAlign=top;spacingLeft=4;spacingRight=4;overflow=hidden;rotatable=0;points=[[0,0.5],[1,0.5]];portConstraint=eastwest;" vertex="1" parent="OHezRKa3BdkfaNB-0USB-372">
          <mxGeometry y="25.774999618530273" width="201" height="26" as="geometry" />
        </mxCell>
        <mxCell id="OHezRKa3BdkfaNB-0USB-374" value="-interviewDate: DateTime" style="text;strokeColor=none;fillColor=none;align=left;verticalAlign=top;spacingLeft=4;spacingRight=4;overflow=hidden;rotatable=0;points=[[0,0.5],[1,0.5]];portConstraint=eastwest;" vertex="1" parent="OHezRKa3BdkfaNB-0USB-372">
          <mxGeometry y="51.77499961853027" width="201" height="26" as="geometry" />
        </mxCell>
        <mxCell id="OHezRKa3BdkfaNB-0USB-375" value="-interviewLocation: string" style="text;strokeColor=none;fillColor=none;align=left;verticalAlign=top;spacingLeft=4;spacingRight=4;overflow=hidden;rotatable=0;points=[[0,0.5],[1,0.5]];portConstraint=eastwest;" vertex="1" parent="OHezRKa3BdkfaNB-0USB-372">
          <mxGeometry y="77.77499961853027" width="201" height="26" as="geometry" />
        </mxCell>
        <mxCell id="OHezRKa3BdkfaNB-0USB-376" value="-status: string" style="text;strokeColor=none;fillColor=none;align=left;verticalAlign=top;spacingLeft=4;spacingRight=4;overflow=hidden;rotatable=0;points=[[0,0.5],[1,0.5]];portConstraint=eastwest;" vertex="1" parent="OHezRKa3BdkfaNB-0USB-372">
          <mxGeometry y="103.77499961853027" width="201" height="26" as="geometry" />
        </mxCell>
        <mxCell id="OHezRKa3BdkfaNB-0USB-377" value="-candidateInfo: array" style="text;strokeColor=none;fillColor=none;align=left;verticalAlign=top;spacingLeft=4;spacingRight=4;overflow=hidden;rotatable=0;points=[[0,0.5],[1,0.5]];portConstraint=eastwest;" vertex="1" parent="OHezRKa3BdkfaNB-0USB-372">
          <mxGeometry y="129.77499961853027" width="201" height="26" as="geometry" />
        </mxCell>
        <mxCell id="OHezRKa3BdkfaNB-0USB-378" value="-evaluatorInfo: array" style="text;strokeColor=none;fillColor=none;align=left;verticalAlign=top;spacingLeft=4;spacingRight=4;overflow=hidden;rotatable=0;points=[[0,0.5],[1,0.5]];portConstraint=eastwest;" vertex="1" parent="OHezRKa3BdkfaNB-0USB-372">
          <mxGeometry y="155.77499961853027" width="201" height="26" as="geometry" />
        </mxCell>
        <mxCell id="OHezRKa3BdkfaNB-0USB-379" style="line;strokeWidth=1;fillColor=none;align=left;verticalAlign=middle;spacingTop=-1;spacingLeft=3;spacingRight=3;rotatable=0;labelPosition=right;points=[];portConstraint=eastwest;strokeColor=inherit;" vertex="1" parent="OHezRKa3BdkfaNB-0USB-372">
          <mxGeometry y="181.77499961853027" width="201" height="8" as="geometry" />
        </mxCell>
        <mxCell id="OHezRKa3BdkfaNB-0USB-380" value="+toArray() : : array" style="text;strokeColor=none;fillColor=none;align=left;verticalAlign=top;spacingLeft=4;spacingRight=4;overflow=hidden;rotatable=0;points=[[0,0.5],[1,0.5]];portConstraint=eastwest;" vertex="1" parent="OHezRKa3BdkfaNB-0USB-372">
          <mxGeometry y="189.77499961853027" width="201" height="26" as="geometry" />
        </mxCell>
        <mxCell id="OHezRKa3BdkfaNB-0USB-381" value="&lt;&lt;interface&gt;&gt;&#xa;ReadRepositoryInterface" style="swimlane;fontStyle=1;align=center;verticalAlign=top;childLayout=stackLayout;horizontal=1;startSize=43.72499942779541;horizontalStack=0;resizeParent=1;resizeParentMax=0;resizeLast=0;collapsible=0;marginBottom=0;" vertex="1" parent="1">
          <mxGeometry x="440" y="1182.78399974823" width="300" height="109.72499942779541" as="geometry" />
        </mxCell>
        <mxCell id="OHezRKa3BdkfaNB-0USB-382" style="line;strokeWidth=1;fillColor=none;align=left;verticalAlign=middle;spacingTop=-1;spacingLeft=3;spacingRight=3;rotatable=0;labelPosition=right;points=[];portConstraint=eastwest;strokeColor=inherit;" vertex="1" parent="OHezRKa3BdkfaNB-0USB-381">
          <mxGeometry y="43.72499942779541" width="300" height="8" as="geometry" />
        </mxCell>
        <mxCell id="OHezRKa3BdkfaNB-0USB-383" value="+findAll() : : array" style="text;strokeColor=none;fillColor=none;align=left;verticalAlign=top;spacingLeft=4;spacingRight=4;overflow=hidden;rotatable=0;points=[[0,0.5],[1,0.5]];portConstraint=eastwest;" vertex="1" parent="OHezRKa3BdkfaNB-0USB-381">
          <mxGeometry y="51.72499942779541" width="300" height="29" as="geometry" />
        </mxCell>
        <mxCell id="OHezRKa3BdkfaNB-0USB-384" value="+findById(int id) : : ReadModelInterface" style="text;strokeColor=none;fillColor=none;align=left;verticalAlign=top;spacingLeft=4;spacingRight=4;overflow=hidden;rotatable=0;points=[[0,0.5],[1,0.5]];portConstraint=eastwest;" vertex="1" parent="OHezRKa3BdkfaNB-0USB-381">
          <mxGeometry y="80.72499942779541" width="300" height="29" as="geometry" />
        </mxCell>
        <mxCell id="OHezRKa3BdkfaNB-0USB-385" value="InterviewReadRepository" style="swimlane;fontStyle=1;align=center;verticalAlign=top;childLayout=stackLayout;horizontal=1;startSize=26.91428484235491;horizontalStack=0;resizeParent=1;resizeParentMax=0;resizeLast=0;collapsible=0;marginBottom=0;" vertex="1" parent="1">
          <mxGeometry x="439" y="1312.5089991760253" width="302" height="88.9142848423549" as="geometry" />
        </mxCell>
        <mxCell id="OHezRKa3BdkfaNB-0USB-386" style="line;strokeWidth=1;fillColor=none;align=left;verticalAlign=middle;spacingTop=-1;spacingLeft=3;spacingRight=3;rotatable=0;labelPosition=right;points=[];portConstraint=eastwest;strokeColor=inherit;" vertex="1" parent="OHezRKa3BdkfaNB-0USB-385">
          <mxGeometry y="26.91428484235491" width="302" height="8" as="geometry" />
        </mxCell>
        <mxCell id="OHezRKa3BdkfaNB-0USB-387" value="+findAll() : : array" style="text;strokeColor=none;fillColor=none;align=left;verticalAlign=top;spacingLeft=4;spacingRight=4;overflow=hidden;rotatable=0;points=[[0,0.5],[1,0.5]];portConstraint=eastwest;" vertex="1" parent="OHezRKa3BdkfaNB-0USB-385">
          <mxGeometry y="34.91428484235491" width="302" height="27" as="geometry" />
        </mxCell>
        <mxCell id="OHezRKa3BdkfaNB-0USB-388" value="+findById(int id) : : InterviewReadModel" style="text;strokeColor=none;fillColor=none;align=left;verticalAlign=top;spacingLeft=4;spacingRight=4;overflow=hidden;rotatable=0;points=[[0,0.5],[1,0.5]];portConstraint=eastwest;" vertex="1" parent="OHezRKa3BdkfaNB-0USB-385">
          <mxGeometry y="61.91428484235491" width="302" height="27" as="geometry" />
        </mxCell>
        <mxCell id="OHezRKa3BdkfaNB-0USB-389" value="&lt;&lt;interface&gt;&gt;&#xa;ApiController" style="swimlane;fontStyle=1;align=center;verticalAlign=top;childLayout=stackLayout;horizontal=1;startSize=43.72499942779541;horizontalStack=0;resizeParent=1;resizeParentMax=0;resizeLast=0;collapsible=0;marginBottom=0;" vertex="1" parent="1">
          <mxGeometry x="1501" y="1182.78399974823" width="218" height="109.72499942779541" as="geometry" />
        </mxCell>
        <mxCell id="OHezRKa3BdkfaNB-0USB-390" style="line;strokeWidth=1;fillColor=none;align=left;verticalAlign=middle;spacingTop=-1;spacingLeft=3;spacingRight=3;rotatable=0;labelPosition=right;points=[];portConstraint=eastwest;strokeColor=inherit;" vertex="1" parent="OHezRKa3BdkfaNB-0USB-389">
          <mxGeometry y="43.72499942779541" width="218" height="8" as="geometry" />
        </mxCell>
        <mxCell id="OHezRKa3BdkfaNB-0USB-391" value="+getAll() : : Response" style="text;strokeColor=none;fillColor=none;align=left;verticalAlign=top;spacingLeft=4;spacingRight=4;overflow=hidden;rotatable=0;points=[[0,0.5],[1,0.5]];portConstraint=eastwest;" vertex="1" parent="OHezRKa3BdkfaNB-0USB-389">
          <mxGeometry y="51.72499942779541" width="218" height="29" as="geometry" />
        </mxCell>
        <mxCell id="OHezRKa3BdkfaNB-0USB-392" value="+getById(int id) : : Response" style="text;strokeColor=none;fillColor=none;align=left;verticalAlign=top;spacingLeft=4;spacingRight=4;overflow=hidden;rotatable=0;points=[[0,0.5],[1,0.5]];portConstraint=eastwest;" vertex="1" parent="OHezRKa3BdkfaNB-0USB-389">
          <mxGeometry y="80.72499942779541" width="218" height="29" as="geometry" />
        </mxCell>
        <mxCell id="OHezRKa3BdkfaNB-0USB-393" value="InterviewController" style="swimlane;fontStyle=1;align=center;verticalAlign=top;childLayout=stackLayout;horizontal=1;startSize=29.149999618530273;horizontalStack=0;resizeParent=1;resizeParentMax=0;resizeLast=0;collapsible=0;marginBottom=0;" vertex="1" parent="1">
          <mxGeometry x="1418" y="1312.5089991760253" width="384" height="124.14999961853027" as="geometry" />
        </mxCell>
        <mxCell id="OHezRKa3BdkfaNB-0USB-394" value="-interviewReadRepository: ReadRepositoryInterface" style="text;strokeColor=none;fillColor=none;align=left;verticalAlign=top;spacingLeft=4;spacingRight=4;overflow=hidden;rotatable=0;points=[[0,0.5],[1,0.5]];portConstraint=eastwest;" vertex="1" parent="OHezRKa3BdkfaNB-0USB-393">
          <mxGeometry y="29.149999618530273" width="384" height="29" as="geometry" />
        </mxCell>
        <mxCell id="OHezRKa3BdkfaNB-0USB-395" style="line;strokeWidth=1;fillColor=none;align=left;verticalAlign=middle;spacingTop=-1;spacingLeft=3;spacingRight=3;rotatable=0;labelPosition=right;points=[];portConstraint=eastwest;strokeColor=inherit;" vertex="1" parent="OHezRKa3BdkfaNB-0USB-393">
          <mxGeometry y="58.14999961853027" width="384" height="8" as="geometry" />
        </mxCell>
        <mxCell id="OHezRKa3BdkfaNB-0USB-396" value="+getAll() : : Response" style="text;strokeColor=none;fillColor=none;align=left;verticalAlign=top;spacingLeft=4;spacingRight=4;overflow=hidden;rotatable=0;points=[[0,0.5],[1,0.5]];portConstraint=eastwest;" vertex="1" parent="OHezRKa3BdkfaNB-0USB-393">
          <mxGeometry y="66.14999961853027" width="384" height="29" as="geometry" />
        </mxCell>
        <mxCell id="OHezRKa3BdkfaNB-0USB-397" value="+getById(int id) : : Response" style="text;strokeColor=none;fillColor=none;align=left;verticalAlign=top;spacingLeft=4;spacingRight=4;overflow=hidden;rotatable=0;points=[[0,0.5],[1,0.5]];portConstraint=eastwest;" vertex="1" parent="OHezRKa3BdkfaNB-0USB-393">
          <mxGeometry y="95.14999961853027" width="384" height="29" as="geometry" />
        </mxCell>
        <mxCell id="OHezRKa3BdkfaNB-0USB-398" value="&lt;&lt;interface&gt;&gt;&#xa;EventDispatcherInterface" style="swimlane;fontStyle=1;align=center;verticalAlign=top;childLayout=stackLayout;horizontal=1;startSize=47.099998474121094;horizontalStack=0;resizeParent=1;resizeParentMax=0;resizeLast=0;collapsible=0;marginBottom=0;" vertex="1" parent="1">
          <mxGeometry x="2658.25" y="1182.78399974823" width="237" height="86.0999984741211" as="geometry" />
        </mxCell>
        <mxCell id="OHezRKa3BdkfaNB-0USB-399" style="line;strokeWidth=1;fillColor=none;align=left;verticalAlign=middle;spacingTop=-1;spacingLeft=3;spacingRight=3;rotatable=0;labelPosition=right;points=[];portConstraint=eastwest;strokeColor=inherit;" vertex="1" parent="OHezRKa3BdkfaNB-0USB-398">
          <mxGeometry y="47.099998474121094" width="237" height="8" as="geometry" />
        </mxCell>
        <mxCell id="OHezRKa3BdkfaNB-0USB-400" value="+dispatch(Event event) : : void" style="text;strokeColor=none;fillColor=none;align=left;verticalAlign=top;spacingLeft=4;spacingRight=4;overflow=hidden;rotatable=0;points=[[0,0.5],[1,0.5]];portConstraint=eastwest;" vertex="1" parent="OHezRKa3BdkfaNB-0USB-398">
          <mxGeometry y="55.099998474121094" width="237" height="31" as="geometry" />
        </mxCell>
        <mxCell id="OHezRKa3BdkfaNB-0USB-401" value="EventDispatcher" style="swimlane;fontStyle=1;align=center;verticalAlign=top;childLayout=stackLayout;horizontal=1;startSize=31.399998982747395;horizontalStack=0;resizeParent=1;resizeParentMax=0;resizeLast=0;collapsible=0;marginBottom=0;" vertex="1" parent="1">
          <mxGeometry x="2644.75" y="1312.5089991760253" width="264" height="101.39999898274739" as="geometry" />
        </mxCell>
        <mxCell id="OHezRKa3BdkfaNB-0USB-402" value="-messageBus: MessageBusInterface" style="text;strokeColor=none;fillColor=none;align=left;verticalAlign=top;spacingLeft=4;spacingRight=4;overflow=hidden;rotatable=0;points=[[0,0.5],[1,0.5]];portConstraint=eastwest;" vertex="1" parent="OHezRKa3BdkfaNB-0USB-401">
          <mxGeometry y="31.399998982747395" width="264" height="31" as="geometry" />
        </mxCell>
        <mxCell id="OHezRKa3BdkfaNB-0USB-403" style="line;strokeWidth=1;fillColor=none;align=left;verticalAlign=middle;spacingTop=-1;spacingLeft=3;spacingRight=3;rotatable=0;labelPosition=right;points=[];portConstraint=eastwest;strokeColor=inherit;" vertex="1" parent="OHezRKa3BdkfaNB-0USB-401">
          <mxGeometry y="62.39999898274739" width="264" height="8" as="geometry" />
        </mxCell>
        <mxCell id="OHezRKa3BdkfaNB-0USB-404" value="+dispatch(Event event) : : void" style="text;strokeColor=none;fillColor=none;align=left;verticalAlign=top;spacingLeft=4;spacingRight=4;overflow=hidden;rotatable=0;points=[[0,0.5],[1,0.5]];portConstraint=eastwest;" vertex="1" parent="OHezRKa3BdkfaNB-0USB-401">
          <mxGeometry y="70.39999898274739" width="264" height="31" as="geometry" />
        </mxCell>
        <mxCell id="OHezRKa3BdkfaNB-0USB-405" value="" style="curved=1;startArrow=block;startSize=16;startFill=0;endArrow=none;rounded=0;edgeStyle=orthogonalEdgeStyle;" edge="1" parent="1" source="OHezRKa3BdkfaNB-0USB-177" target="OHezRKa3BdkfaNB-0USB-190">
          <mxGeometry relative="1" as="geometry">
            <Array as="points">
              <mxPoint x="590" y="336.18400146484373" />
              <mxPoint x="590" y="351.18400146484373" />
              <mxPoint x="234.25" y="351.18400146484373" />
              <mxPoint x="234.25" y="356.18400146484373" />
            </Array>
          </mxGeometry>
        </mxCell>
        <mxCell id="OHezRKa3BdkfaNB-0USB-406" value="" style="curved=1;startArrow=block;startSize=16;startFill=0;endArrow=none;rounded=0;edgeStyle=orthogonalEdgeStyle;" edge="1" parent="1" source="OHezRKa3BdkfaNB-0USB-177" target="OHezRKa3BdkfaNB-0USB-196">
          <mxGeometry relative="1" as="geometry">
            <Array as="points">
              <mxPoint x="590" y="336.18400146484373" />
              <mxPoint x="590" y="351.18400146484373" />
              <mxPoint x="474.75" y="351.18400146484373" />
              <mxPoint x="474.75" y="356.18400146484373" />
            </Array>
          </mxGeometry>
        </mxCell>
        <mxCell id="OHezRKa3BdkfaNB-0USB-407" value="" style="curved=1;startArrow=block;startSize=16;startFill=0;endArrow=none;rounded=0;edgeStyle=orthogonalEdgeStyle;" edge="1" parent="1" source="OHezRKa3BdkfaNB-0USB-177" target="OHezRKa3BdkfaNB-0USB-200">
          <mxGeometry relative="1" as="geometry">
            <Array as="points">
              <mxPoint x="590" y="336.18400146484373" />
              <mxPoint x="590" y="351.18400146484373" />
              <mxPoint x="712.25" y="351.18400146484373" />
              <mxPoint x="712.25" y="356.18400146484373" />
            </Array>
          </mxGeometry>
        </mxCell>
        <mxCell id="OHezRKa3BdkfaNB-0USB-408" value="" style="curved=1;startArrow=diamondThin;startSize=14;startFill=1;endArrow=none;rounded=0;edgeStyle=orthogonalEdgeStyle;" edge="1" parent="1" source="OHezRKa3BdkfaNB-0USB-206" target="OHezRKa3BdkfaNB-0USB-214">
          <mxGeometry relative="1" as="geometry">
            <Array as="points">
              <mxPoint x="1610" y="205.25714329310824" />
              <mxPoint x="1610" y="351.18400146484373" />
              <mxPoint x="1310.75" y="351.18400146484373" />
              <mxPoint x="1310.75" y="356.18400146484373" />
            </Array>
          </mxGeometry>
        </mxCell>
        <mxCell id="OHezRKa3BdkfaNB-0USB-409" value="1" style="edgeLabel;resizable=0;labelBackgroundColor=none;fontSize=12;align=right;verticalAlign=top;" vertex="1" parent="OHezRKa3BdkfaNB-0USB-408">
          <mxGeometry x="-1" relative="1" as="geometry" />
        </mxCell>
        <mxCell id="OHezRKa3BdkfaNB-0USB-410" value="1..*" style="edgeLabel;resizable=0;labelBackgroundColor=none;fontSize=12;align=left;verticalAlign=bottom;" vertex="1" parent="OHezRKa3BdkfaNB-0USB-408">
          <mxGeometry x="1" relative="1" as="geometry" />
        </mxCell>
        <mxCell id="OHezRKa3BdkfaNB-0USB-411" value="" style="curved=1;startArrow=diamondThin;startSize=14;startFill=1;endArrow=none;rounded=0;edgeStyle=orthogonalEdgeStyle;" edge="1" parent="1" source="OHezRKa3BdkfaNB-0USB-206" target="OHezRKa3BdkfaNB-0USB-250">
          <mxGeometry relative="1" as="geometry">
            <Array as="points">
              <mxPoint x="1610" y="205.25714329310824" />
              <mxPoint x="1610" y="351.18400146484373" />
              <mxPoint x="1616.25" y="351.18400146484373" />
              <mxPoint x="1909.25" y="351.18400146484373" />
              <mxPoint x="1909.25" y="356.18400146484373" />
            </Array>
          </mxGeometry>
        </mxCell>
        <mxCell id="OHezRKa3BdkfaNB-0USB-412" value="1" style="edgeLabel;resizable=0;labelBackgroundColor=none;fontSize=12;align=right;verticalAlign=top;" vertex="1" parent="OHezRKa3BdkfaNB-0USB-411">
          <mxGeometry x="-1" relative="1" as="geometry" />
        </mxCell>
        <mxCell id="OHezRKa3BdkfaNB-0USB-413" value="1" style="edgeLabel;resizable=0;labelBackgroundColor=none;fontSize=12;align=left;verticalAlign=bottom;" vertex="1" parent="OHezRKa3BdkfaNB-0USB-411">
          <mxGeometry x="1" relative="1" as="geometry" />
        </mxCell>
        <mxCell id="OHezRKa3BdkfaNB-0USB-414" value="" style="curved=1;startArrow=diamondThin;startSize=14;startFill=1;endArrow=none;rounded=0;edgeStyle=orthogonalEdgeStyle;" edge="1" parent="1" source="OHezRKa3BdkfaNB-0USB-190" target="OHezRKa3BdkfaNB-0USB-221">
          <mxGeometry relative="1" as="geometry">
            <Array as="points">
              <mxPoint x="234.25" y="503.98400146484374" />
              <mxPoint x="234.25" y="518.9840014648437" />
              <mxPoint x="111.5" y="518.9840014648437" />
              <mxPoint x="111.5" y="523.9840014648437" />
            </Array>
          </mxGeometry>
        </mxCell>
        <mxCell id="OHezRKa3BdkfaNB-0USB-415" value="1" style="edgeLabel;resizable=0;labelBackgroundColor=none;fontSize=12;align=right;verticalAlign=top;" vertex="1" parent="OHezRKa3BdkfaNB-0USB-414">
          <mxGeometry x="-1" relative="1" as="geometry" />
        </mxCell>
        <mxCell id="OHezRKa3BdkfaNB-0USB-416" value="1" style="edgeLabel;resizable=0;labelBackgroundColor=none;fontSize=12;align=left;verticalAlign=bottom;" vertex="1" parent="OHezRKa3BdkfaNB-0USB-414">
          <mxGeometry x="1" relative="1" as="geometry" />
        </mxCell>
        <mxCell id="OHezRKa3BdkfaNB-0USB-417" value="" style="curved=1;startArrow=diamondThin;startSize=14;startFill=1;endArrow=none;rounded=0;edgeStyle=orthogonalEdgeStyle;" edge="1" parent="1" source="OHezRKa3BdkfaNB-0USB-190" target="OHezRKa3BdkfaNB-0USB-241">
          <mxGeometry relative="1" as="geometry">
            <Array as="points">
              <mxPoint x="234.25" y="503.98400146484374" />
              <mxPoint x="234.25" y="518.9840014648437" />
              <mxPoint x="357" y="518.9840014648437" />
              <mxPoint x="357" y="523.9840014648437" />
            </Array>
          </mxGeometry>
        </mxCell>
        <mxCell id="OHezRKa3BdkfaNB-0USB-418" value="1" style="edgeLabel;resizable=0;labelBackgroundColor=none;fontSize=12;align=right;verticalAlign=top;" vertex="1" parent="OHezRKa3BdkfaNB-0USB-417">
          <mxGeometry x="-1" relative="1" as="geometry" />
        </mxCell>
        <mxCell id="OHezRKa3BdkfaNB-0USB-419" value="0..*" style="edgeLabel;resizable=0;labelBackgroundColor=none;fontSize=12;align=left;verticalAlign=bottom;" vertex="1" parent="OHezRKa3BdkfaNB-0USB-417">
          <mxGeometry x="1" relative="1" as="geometry" />
        </mxCell>
        <mxCell id="OHezRKa3BdkfaNB-0USB-420" value="" style="curved=1;startArrow=diamondThin;startSize=14;startFill=1;endArrow=none;rounded=0;edgeStyle=orthogonalEdgeStyle;" edge="1" parent="1" source="OHezRKa3BdkfaNB-0USB-177" target="OHezRKa3BdkfaNB-0USB-235">
          <mxGeometry relative="1" as="geometry">
            <Array as="points">
              <mxPoint x="590" y="336.18400146484373" />
              <mxPoint x="590" y="351.18400146484373" />
              <mxPoint x="712.25" y="351.18400146484373" />
              <mxPoint x="945.75" y="351.18400146484373" />
              <mxPoint x="945.75" y="356.18400146484373" />
            </Array>
          </mxGeometry>
        </mxCell>
        <mxCell id="OHezRKa3BdkfaNB-0USB-421" value="1" style="edgeLabel;resizable=0;labelBackgroundColor=none;fontSize=12;align=left;verticalAlign=top;" vertex="1" parent="OHezRKa3BdkfaNB-0USB-420">
          <mxGeometry x="-1" relative="1" as="geometry" />
        </mxCell>
        <mxCell id="OHezRKa3BdkfaNB-0USB-422" value="0..*" style="edgeLabel;resizable=0;labelBackgroundColor=none;fontSize=12;align=right;verticalAlign=bottom;" vertex="1" parent="OHezRKa3BdkfaNB-0USB-420">
          <mxGeometry x="1" relative="1" as="geometry" />
        </mxCell>
        <mxCell id="OHezRKa3BdkfaNB-0USB-423" value="" style="curved=1;startArrow=diamondThin;startSize=14;startFill=1;endArrow=none;rounded=0;edgeStyle=orthogonalEdgeStyle;" edge="1" parent="1" source="OHezRKa3BdkfaNB-0USB-206" target="OHezRKa3BdkfaNB-0USB-226">
          <mxGeometry relative="1" as="geometry">
            <Array as="points">
              <mxPoint x="1610" y="205.25714329310824" />
              <mxPoint x="1610" y="351.18400146484373" />
              <mxPoint x="1616.25" y="351.18400146484373" />
              <mxPoint x="1616.25" y="356.18400146484373" />
            </Array>
          </mxGeometry>
        </mxCell>
        <mxCell id="OHezRKa3BdkfaNB-0USB-424" value="1" style="edgeLabel;resizable=0;labelBackgroundColor=none;fontSize=12;align=right;verticalAlign=top;" vertex="1" parent="OHezRKa3BdkfaNB-0USB-423">
          <mxGeometry x="-1" relative="1" as="geometry" />
        </mxCell>
        <mxCell id="OHezRKa3BdkfaNB-0USB-425" value="1" style="edgeLabel;resizable=0;labelBackgroundColor=none;fontSize=12;align=left;verticalAlign=bottom;" vertex="1" parent="OHezRKa3BdkfaNB-0USB-423">
          <mxGeometry x="1" relative="1" as="geometry" />
        </mxCell>
        <mxCell id="OHezRKa3BdkfaNB-0USB-426" value="" style="curved=1;dashed=1;startArrow=block;startSize=16;startFill=0;endArrow=none;rounded=0;edgeStyle=orthogonalEdgeStyle;" edge="1" parent="1" source="OHezRKa3BdkfaNB-0USB-256" target="OHezRKa3BdkfaNB-0USB-259">
          <mxGeometry relative="1" as="geometry">
            <Array as="points">
              <mxPoint x="2776.75" y="101.0999984741211" />
              <mxPoint x="2776.75" y="351.18400146484373" />
              <mxPoint x="2357.75" y="351.18400146484373" />
              <mxPoint x="2357.75" y="356.18400146484373" />
            </Array>
          </mxGeometry>
        </mxCell>
        <mxCell id="OHezRKa3BdkfaNB-0USB-427" value="" style="curved=1;dashed=1;startArrow=block;startSize=16;startFill=0;endArrow=none;rounded=0;edgeStyle=orthogonalEdgeStyle;" edge="1" parent="1" source="OHezRKa3BdkfaNB-0USB-256" target="OHezRKa3BdkfaNB-0USB-263">
          <mxGeometry relative="1" as="geometry">
            <Array as="points">
              <mxPoint x="2776.75" y="101.0999984741211" />
              <mxPoint x="2776.75" y="351.18400146484373" />
              <mxPoint x="2621.75" y="351.18400146484373" />
              <mxPoint x="2621.75" y="356.18400146484373" />
            </Array>
          </mxGeometry>
        </mxCell>
        <mxCell id="OHezRKa3BdkfaNB-0USB-428" value="" style="curved=1;dashed=1;startArrow=block;startSize=16;startFill=0;endArrow=none;rounded=0;edgeStyle=orthogonalEdgeStyle;" edge="1" parent="1" source="OHezRKa3BdkfaNB-0USB-256" target="OHezRKa3BdkfaNB-0USB-268">
          <mxGeometry relative="1" as="geometry">
            <Array as="points">
              <mxPoint x="2776.75" y="101.0999984741211" />
              <mxPoint x="2776.75" y="351.18400146484373" />
              <mxPoint x="2908.75" y="351.18400146484373" />
              <mxPoint x="2908.75" y="356.18400146484373" />
            </Array>
          </mxGeometry>
        </mxCell>
        <mxCell id="OHezRKa3BdkfaNB-0USB-429" value="" style="curved=1;dashed=1;startArrow=block;startSize=16;startFill=0;endArrow=none;rounded=0;edgeStyle=orthogonalEdgeStyle;" edge="1" parent="1" source="OHezRKa3BdkfaNB-0USB-256" target="OHezRKa3BdkfaNB-0USB-273">
          <mxGeometry relative="1" as="geometry">
            <Array as="points">
              <mxPoint x="2776.75" y="101.0999984741211" />
              <mxPoint x="2776.75" y="351.18400146484373" />
              <mxPoint x="2908.75" y="351.18400146484373" />
              <mxPoint x="3166.25" y="351.18400146484373" />
              <mxPoint x="3166.25" y="356.18400146484373" />
            </Array>
          </mxGeometry>
        </mxCell>
        <mxCell id="OHezRKa3BdkfaNB-0USB-430" value="" style="curved=1;dashed=1;startArrow=block;startSize=16;startFill=0;endArrow=none;rounded=0;edgeStyle=orthogonalEdgeStyle;" edge="1" parent="1" source="OHezRKa3BdkfaNB-0USB-256" target="OHezRKa3BdkfaNB-0USB-278">
          <mxGeometry relative="1" as="geometry">
            <Array as="points">
              <mxPoint x="2776.75" y="101.0999984741211" />
              <mxPoint x="2776.75" y="351.18400146484373" />
              <mxPoint x="2776.75" y="495.334001083374" />
              <mxPoint x="2357.75" y="495.334001083374" />
              <mxPoint x="2357.75" y="500.334001083374" />
            </Array>
          </mxGeometry>
        </mxCell>
        <mxCell id="OHezRKa3BdkfaNB-0USB-431" value="" style="curved=1;dashed=1;startArrow=block;startSize=16;startFill=0;endArrow=none;rounded=0;edgeStyle=orthogonalEdgeStyle;" edge="1" parent="1" source="OHezRKa3BdkfaNB-0USB-283" target="OHezRKa3BdkfaNB-0USB-286">
          <mxGeometry relative="1" as="geometry">
            <Array as="points">
              <mxPoint x="4217" y="101.0999984741211" />
              <mxPoint x="4217" y="351.18400146484373" />
              <mxPoint x="3537.75" y="351.18400146484373" />
              <mxPoint x="3537.75" y="356.18400146484373" />
            </Array>
          </mxGeometry>
        </mxCell>
        <mxCell id="OHezRKa3BdkfaNB-0USB-432" value="" style="curved=1;dashed=1;startArrow=block;startSize=16;startFill=0;endArrow=none;rounded=0;edgeStyle=orthogonalEdgeStyle;" edge="1" parent="1" source="OHezRKa3BdkfaNB-0USB-283" target="OHezRKa3BdkfaNB-0USB-290">
          <mxGeometry relative="1" as="geometry">
            <Array as="points">
              <mxPoint x="4217" y="101.0999984741211" />
              <mxPoint x="4217" y="351.18400146484373" />
              <mxPoint x="3962.75" y="351.18400146484373" />
              <mxPoint x="3962.75" y="356.18400146484373" />
            </Array>
          </mxGeometry>
        </mxCell>
        <mxCell id="OHezRKa3BdkfaNB-0USB-433" value="" style="curved=1;dashed=1;startArrow=block;startSize=16;startFill=0;endArrow=none;rounded=0;edgeStyle=orthogonalEdgeStyle;" edge="1" parent="1" source="OHezRKa3BdkfaNB-0USB-283" target="OHezRKa3BdkfaNB-0USB-294">
          <mxGeometry relative="1" as="geometry">
            <Array as="points">
              <mxPoint x="4217" y="101.0999984741211" />
              <mxPoint x="4217" y="351.18400146484373" />
              <mxPoint x="4432.75" y="351.18400146484373" />
              <mxPoint x="4432.75" y="356.18400146484373" />
            </Array>
          </mxGeometry>
        </mxCell>
        <mxCell id="OHezRKa3BdkfaNB-0USB-434" value="" style="curved=1;dashed=1;startArrow=block;startSize=16;startFill=0;endArrow=none;rounded=0;edgeStyle=orthogonalEdgeStyle;" edge="1" parent="1" source="OHezRKa3BdkfaNB-0USB-283" target="OHezRKa3BdkfaNB-0USB-298">
          <mxGeometry relative="1" as="geometry">
            <Array as="points">
              <mxPoint x="4217" y="101.0999984741211" />
              <mxPoint x="4217" y="351.18400146484373" />
              <mxPoint x="4432.75" y="351.18400146484373" />
              <mxPoint x="4896.25" y="351.18400146484373" />
              <mxPoint x="4896.25" y="356.18400146484373" />
            </Array>
          </mxGeometry>
        </mxCell>
        <mxCell id="OHezRKa3BdkfaNB-0USB-435" value="" style="curved=1;dashed=1;startArrow=block;startSize=16;startFill=0;endArrow=none;rounded=0;edgeStyle=orthogonalEdgeStyle;" edge="1" parent="1" source="OHezRKa3BdkfaNB-0USB-302" target="OHezRKa3BdkfaNB-0USB-305">
          <mxGeometry relative="1" as="geometry">
            <Array as="points">
              <mxPoint x="590" y="845.858999557495" />
              <mxPoint x="590" y="884.4840005111694" />
              <mxPoint x="204" y="884.4840005111694" />
              <mxPoint x="204" y="889.4840005111694" />
            </Array>
          </mxGeometry>
        </mxCell>
        <mxCell id="OHezRKa3BdkfaNB-0USB-436" value="" style="curved=1;dashed=1;startArrow=block;startSize=16;startFill=0;endArrow=none;rounded=0;edgeStyle=orthogonalEdgeStyle;" edge="1" parent="1" source="OHezRKa3BdkfaNB-0USB-302" target="OHezRKa3BdkfaNB-0USB-310">
          <mxGeometry relative="1" as="geometry">
            <Array as="points">
              <mxPoint x="590" y="845.858999557495" />
              <mxPoint x="590" y="884.4840005111694" />
              <mxPoint x="446" y="884.4840005111694" />
              <mxPoint x="446" y="889.4840005111694" />
            </Array>
          </mxGeometry>
        </mxCell>
        <mxCell id="OHezRKa3BdkfaNB-0USB-437" value="" style="curved=1;dashed=1;startArrow=block;startSize=16;startFill=0;endArrow=none;rounded=0;edgeStyle=orthogonalEdgeStyle;" edge="1" parent="1" source="OHezRKa3BdkfaNB-0USB-302" target="OHezRKa3BdkfaNB-0USB-315">
          <mxGeometry relative="1" as="geometry">
            <Array as="points">
              <mxPoint x="590" y="845.858999557495" />
              <mxPoint x="590" y="884.4840005111694" />
              <mxPoint x="715.5" y="884.4840005111694" />
              <mxPoint x="715.5" y="889.4840005111694" />
            </Array>
          </mxGeometry>
        </mxCell>
        <mxCell id="OHezRKa3BdkfaNB-0USB-438" value="" style="curved=1;dashed=1;startArrow=block;startSize=16;startFill=0;endArrow=none;rounded=0;edgeStyle=orthogonalEdgeStyle;" edge="1" parent="1" source="OHezRKa3BdkfaNB-0USB-302" target="OHezRKa3BdkfaNB-0USB-320">
          <mxGeometry relative="1" as="geometry">
            <Array as="points">
              <mxPoint x="590" y="845.858999557495" />
              <mxPoint x="590" y="884.4840005111694" />
              <mxPoint x="715.5" y="884.4840005111694" />
              <mxPoint x="955.5" y="884.4840005111694" />
              <mxPoint x="955.5" y="889.4840005111694" />
            </Array>
          </mxGeometry>
        </mxCell>
        <mxCell id="OHezRKa3BdkfaNB-0USB-439" value="" style="curved=1;dashed=1;startArrow=block;startSize=16;startFill=0;endArrow=none;rounded=0;edgeStyle=orthogonalEdgeStyle;" edge="1" parent="1" source="OHezRKa3BdkfaNB-0USB-302" target="OHezRKa3BdkfaNB-0USB-325">
          <mxGeometry relative="1" as="geometry">
            <Array as="points">
              <mxPoint x="590" y="845.858999557495" />
              <mxPoint x="590" y="884.4840005111694" />
              <mxPoint x="590" y="1028.6340001296996" />
              <mxPoint x="204" y="1028.6340001296996" />
              <mxPoint x="204" y="1033.6340001296996" />
            </Array>
          </mxGeometry>
        </mxCell>
        <mxCell id="OHezRKa3BdkfaNB-0USB-440" value="" style="curved=1;dashed=1;startArrow=block;startSize=16;startFill=0;endArrow=none;rounded=0;edgeStyle=orthogonalEdgeStyle;" edge="1" parent="1" source="OHezRKa3BdkfaNB-0USB-330" target="OHezRKa3BdkfaNB-0USB-333">
          <mxGeometry relative="1" as="geometry">
            <Array as="points">
              <mxPoint x="1610" y="845.858999557495" />
              <mxPoint x="1610" y="884.4840005111694" />
              <mxPoint x="1237.5" y="884.4840005111694" />
              <mxPoint x="1237.5" y="889.4840005111694" />
            </Array>
          </mxGeometry>
        </mxCell>
        <mxCell id="OHezRKa3BdkfaNB-0USB-441" value="" style="curved=1;dashed=1;startArrow=block;startSize=16;startFill=0;endArrow=none;rounded=0;edgeStyle=orthogonalEdgeStyle;" edge="1" parent="1" source="OHezRKa3BdkfaNB-0USB-330" target="OHezRKa3BdkfaNB-0USB-337">
          <mxGeometry relative="1" as="geometry">
            <Array as="points">
              <mxPoint x="1610" y="845.858999557495" />
              <mxPoint x="1610" y="884.4840005111694" />
              <mxPoint x="1482.5" y="884.4840005111694" />
              <mxPoint x="1482.5" y="889.4840005111694" />
            </Array>
          </mxGeometry>
        </mxCell>
        <mxCell id="OHezRKa3BdkfaNB-0USB-442" value="" style="curved=1;dashed=1;startArrow=block;startSize=16;startFill=0;endArrow=none;rounded=0;edgeStyle=orthogonalEdgeStyle;" edge="1" parent="1" source="OHezRKa3BdkfaNB-0USB-330" target="OHezRKa3BdkfaNB-0USB-341">
          <mxGeometry relative="1" as="geometry">
            <Array as="points">
              <mxPoint x="1610" y="845.858999557495" />
              <mxPoint x="1610" y="884.4840005111694" />
              <mxPoint x="1732.5" y="884.4840005111694" />
              <mxPoint x="1732.5" y="889.4840005111694" />
            </Array>
          </mxGeometry>
        </mxCell>
        <mxCell id="OHezRKa3BdkfaNB-0USB-443" value="" style="curved=1;dashed=1;startArrow=block;startSize=16;startFill=0;endArrow=none;rounded=0;edgeStyle=orthogonalEdgeStyle;" edge="1" parent="1" source="OHezRKa3BdkfaNB-0USB-330" target="OHezRKa3BdkfaNB-0USB-345">
          <mxGeometry relative="1" as="geometry">
            <Array as="points">
              <mxPoint x="1610" y="845.858999557495" />
              <mxPoint x="1610" y="884.4840005111694" />
              <mxPoint x="1732.5" y="884.4840005111694" />
              <mxPoint x="1982.5" y="884.4840005111694" />
              <mxPoint x="1982.5" y="889.4840005111694" />
            </Array>
          </mxGeometry>
        </mxCell>
        <mxCell id="OHezRKa3BdkfaNB-0USB-444" value="" style="curved=1;dashed=1;startArrow=block;startSize=16;startFill=0;endArrow=none;rounded=0;edgeStyle=orthogonalEdgeStyle;" edge="1" parent="1" source="OHezRKa3BdkfaNB-0USB-349" target="OHezRKa3BdkfaNB-0USB-353">
          <mxGeometry relative="1" as="geometry">
            <Array as="points">
              <mxPoint x="2776.75" y="869.4840005111694" />
              <mxPoint x="2776.75" y="884.4840005111694" />
              <mxPoint x="2276.5" y="884.4840005111694" />
              <mxPoint x="2276.5" y="889.4840005111694" />
            </Array>
          </mxGeometry>
        </mxCell>
        <mxCell id="OHezRKa3BdkfaNB-0USB-445" value="" style="curved=1;dashed=1;startArrow=block;startSize=16;startFill=0;endArrow=none;rounded=0;edgeStyle=orthogonalEdgeStyle;" edge="1" parent="1" source="OHezRKa3BdkfaNB-0USB-349" target="OHezRKa3BdkfaNB-0USB-357">
          <mxGeometry relative="1" as="geometry">
            <Array as="points">
              <mxPoint x="2776.75" y="869.4840005111694" />
              <mxPoint x="2776.75" y="884.4840005111694" />
              <mxPoint x="2582.5" y="884.4840005111694" />
              <mxPoint x="2582.5" y="889.4840005111694" />
            </Array>
          </mxGeometry>
        </mxCell>
        <mxCell id="OHezRKa3BdkfaNB-0USB-446" value="" style="curved=1;dashed=1;startArrow=block;startSize=16;startFill=0;endArrow=none;rounded=0;edgeStyle=orthogonalEdgeStyle;" edge="1" parent="1" source="OHezRKa3BdkfaNB-0USB-349" target="OHezRKa3BdkfaNB-0USB-361">
          <mxGeometry relative="1" as="geometry">
            <Array as="points">
              <mxPoint x="2776.75" y="869.4840005111694" />
              <mxPoint x="2776.75" y="884.4840005111694" />
              <mxPoint x="2933" y="884.4840005111694" />
              <mxPoint x="2933" y="889.4840005111694" />
            </Array>
          </mxGeometry>
        </mxCell>
        <mxCell id="OHezRKa3BdkfaNB-0USB-447" value="" style="curved=1;dashed=1;startArrow=block;startSize=16;startFill=0;endArrow=none;rounded=0;edgeStyle=orthogonalEdgeStyle;" edge="1" parent="1" source="OHezRKa3BdkfaNB-0USB-349" target="OHezRKa3BdkfaNB-0USB-365">
          <mxGeometry relative="1" as="geometry">
            <Array as="points">
              <mxPoint x="2776.75" y="869.4840005111694" />
              <mxPoint x="2776.75" y="884.4840005111694" />
              <mxPoint x="2933" y="884.4840005111694" />
              <mxPoint x="3277" y="884.4840005111694" />
              <mxPoint x="3277" y="889.4840005111694" />
            </Array>
          </mxGeometry>
        </mxCell>
        <mxCell id="OHezRKa3BdkfaNB-0USB-448" value="" style="curved=1;dashed=1;startArrow=block;startSize=16;startFill=0;endArrow=none;rounded=0;edgeStyle=orthogonalEdgeStyle;" edge="1" parent="1" source="OHezRKa3BdkfaNB-0USB-369" target="OHezRKa3BdkfaNB-0USB-372">
          <mxGeometry relative="1" as="geometry">
            <Array as="points">
              <mxPoint x="4217" y="845.858999557495" />
              <mxPoint x="4217" y="889.4840005111694" />
            </Array>
          </mxGeometry>
        </mxCell>
        <mxCell id="OHezRKa3BdkfaNB-0USB-449" value="" style="curved=1;dashed=1;startArrow=block;startSize=16;startFill=0;endArrow=none;rounded=0;edgeStyle=orthogonalEdgeStyle;" edge="1" parent="1" source="OHezRKa3BdkfaNB-0USB-381" target="OHezRKa3BdkfaNB-0USB-385">
          <mxGeometry relative="1" as="geometry">
            <Array as="points">
              <mxPoint x="590" y="1287.5089991760253" />
              <mxPoint x="590" y="1307.5089991760253" />
            </Array>
          </mxGeometry>
        </mxCell>
        <mxCell id="OHezRKa3BdkfaNB-0USB-450" value="" style="curved=1;dashed=1;startArrow=block;startSize=16;startFill=0;endArrow=none;rounded=0;edgeStyle=orthogonalEdgeStyle;" edge="1" parent="1" source="OHezRKa3BdkfaNB-0USB-389" target="OHezRKa3BdkfaNB-0USB-393">
          <mxGeometry relative="1" as="geometry">
            <Array as="points">
              <mxPoint x="1610" y="1287.5089991760253" />
              <mxPoint x="1610" y="1307.5089991760253" />
            </Array>
          </mxGeometry>
        </mxCell>
        <mxCell id="OHezRKa3BdkfaNB-0USB-451" value="" style="curved=1;dashed=1;startArrow=block;startSize=16;startFill=0;endArrow=none;rounded=0;edgeStyle=orthogonalEdgeStyle;" edge="1" parent="1" source="OHezRKa3BdkfaNB-0USB-398" target="OHezRKa3BdkfaNB-0USB-401">
          <mxGeometry relative="1" as="geometry">
            <Array as="points">
              <mxPoint x="2776.75" y="1263.883998222351" />
              <mxPoint x="2776.75" y="1307.5089991760253" />
            </Array>
          </mxGeometry>
        </mxCell>
      </root>
    </mxGraphModel>
  </diagram>
</mxfile>
